<svg width="46" height="46" viewBox="0 0 46 46" fill="none" xmlns="http://www.w3.org/2000/svg">
<path d="M10.5616 34.1413C10.5248 34.1413 10.4972 34.1137 10.4972 34.0769V14.9409C10.4972 14.9041 10.5248 14.8765 10.5616 14.8765C10.5984 14.8765 10.626 14.9041 10.626 14.9409V34.0769C10.626 34.1137 10.5984 34.1413 10.5616 34.1413Z" fill="#D1D3D4"/>
<path d="M14.3428 34.1413C14.306 34.1413 14.2784 34.1137 14.2784 34.0769V14.9409C14.2784 14.9041 14.306 14.8765 14.3428 14.8765C14.3796 14.8765 14.4072 14.9041 14.4072 14.9409V34.0769C14.4072 34.1137 14.3796 34.1413 14.3428 34.1413Z" fill="#D1D3D4"/>
<path d="M18.124 34.1413C18.0872 34.1413 18.0596 34.1137 18.0596 34.0769V14.9409C18.0596 14.9041 18.0872 14.8765 18.124 14.8765C18.1608 14.8765 18.1884 14.9041 18.1884 14.9409V34.0769C18.1884 34.1137 18.1608 34.1413 18.124 34.1413Z" fill="#D1D3D4"/>
<path d="M21.9052 34.1413C21.8684 34.1413 21.8408 34.1137 21.8408 34.0769V14.9409C21.8408 14.9041 21.8684 14.8765 21.9052 14.8765C21.942 14.8765 21.9696 14.9041 21.9696 14.9409V34.0769C21.9696 34.1137 21.9328 34.1413 21.9052 34.1413Z" fill="#D1D3D4"/>
<path d="M25.6863 34.1413C25.6495 34.1413 25.6219 34.1137 25.6219 34.0769V14.9409C25.6219 14.9041 25.6495 14.8765 25.6863 14.8765C25.7231 14.8765 25.7507 14.9041 25.7507 14.9409V34.0769C25.7507 34.1137 25.7139 34.1413 25.6863 34.1413Z" fill="#D1D3D4"/>
<path d="M29.4584 34.1413C29.4216 34.1413 29.394 34.1137 29.394 34.0769V14.9409C29.394 14.9041 29.4216 14.8765 29.4584 14.8765C29.4952 14.8765 29.5228 14.9041 29.5228 14.9409V34.0769C29.5228 34.1137 29.4952 34.1413 29.4584 34.1413Z" fill="#D1D3D4"/>
<path d="M33.2396 34.1413C33.2028 34.1413 33.1752 34.1137 33.1752 34.0769V14.9409C33.1752 14.9041 33.2028 14.8765 33.2396 14.8765C33.2764 14.8765 33.304 14.9041 33.304 14.9409V34.0769C33.304 34.1137 33.2764 34.1413 33.2396 34.1413Z" fill="#D1D3D4"/>
<path d="M37.0208 34.1413C36.984 34.1413 36.9564 34.1137 36.9564 34.0769V14.9409C36.9564 14.9041 36.984 14.8765 37.0208 14.8765C37.0576 14.8765 37.0852 14.9041 37.0852 14.9409V34.0769C37.0852 34.1137 37.0576 34.1413 37.0208 34.1413Z" fill="#D1D3D4"/>
<path d="M37.0208 15.0053H6.4676C6.4308 15.0053 6.4032 14.9777 6.4032 14.9409C6.4032 14.9041 6.4308 14.8765 6.4676 14.8765H37.0208C37.0576 14.8765 37.0852 14.9041 37.0852 14.9409C37.0852 14.9685 37.0576 14.9961 37.0208 15.0053Z" fill="#D1D3D4"/>
<path d="M37.0208 18.7772H6.4676C6.4308 18.7772 6.4032 18.7496 6.4032 18.7128C6.4032 18.676 6.4308 18.6484 6.4676 18.6484H37.0208C37.0576 18.6484 37.0852 18.676 37.0852 18.7128C37.0852 18.7496 37.0576 18.7772 37.0208 18.7772Z" fill="#D1D3D4"/>
<path d="M37.0208 22.5585H6.4676C6.4308 22.5585 6.4032 22.5309 6.4032 22.4941C6.4032 22.4573 6.4308 22.4297 6.4676 22.4297H37.0208C37.0576 22.4297 37.0852 22.4573 37.0852 22.4941C37.0852 22.5309 37.0576 22.5585 37.0208 22.5585Z" fill="#D1D3D4"/>
<path d="M37.0208 26.3397H6.4676C6.4308 26.3397 6.4032 26.3121 6.4032 26.2753C6.4032 26.2385 6.4308 26.2109 6.4676 26.2109H37.0208C37.0576 26.2109 37.0852 26.2385 37.0852 26.2753C37.0852 26.3121 37.0576 26.3397 37.0208 26.3397Z" fill="#D1D3D4"/>
<path d="M37.0208 30.1207H6.4676C6.4308 30.1207 6.4032 30.0931 6.4032 30.0563C6.4032 30.0195 6.4308 29.9919 6.4676 29.9919H37.0208C37.0576 29.9919 37.0852 30.0195 37.0852 30.0563C37.0852 30.0931 37.0576 30.1207 37.0208 30.1207Z" fill="#D1D3D4"/>
<path d="M37.0208 33.902H6.4676C6.4308 33.902 6.4032 33.8744 6.4032 33.8376C6.4032 33.8008 6.4308 33.7732 6.4676 33.7732H37.0208C37.0576 33.7732 37.0852 33.8008 37.0852 33.8376C37.0852 33.8744 37.0576 33.902 37.0208 33.902Z" fill="#D1D3D4"/>
<path d="M38.548 26.6341H33.8192L32.8624 25.0425V26.6341H32.8164C32.476 26.6341 32.2 26.9101 32.2 27.2505V31.2157C32.2 31.5561 32.476 31.8321 32.8164 31.8321H38.548C38.8884 31.8321 39.1644 31.5561 39.1644 31.2157V27.2505C39.1644 26.9101 38.8884 26.6341 38.548 26.6341Z" fill="#FFC107"/>
<path d="M37.9592 28.6488H33.4144C33.3776 28.6488 33.35 28.6212 33.35 28.5844C33.35 28.5476 33.3776 28.52 33.4144 28.52H37.9592C37.996 28.52 38.0236 28.5476 38.0236 28.5844C38.0236 28.6212 37.996 28.6488 37.9592 28.6488Z" fill="white"/>
<path d="M36.9472 29.9462H33.4144C33.3776 29.9462 33.35 29.9186 33.35 29.8818C33.35 29.845 33.3776 29.8174 33.4144 29.8174H36.9472C36.984 29.8174 37.0116 29.845 37.0116 29.8818C37.0116 29.9186 36.984 29.9462 36.9472 29.9462Z" fill="white"/>
<path d="M10.5616 30.8845C11.0189 30.8845 11.3896 30.5138 11.3896 30.0565C11.3896 29.5992 11.0189 29.2285 10.5616 29.2285C10.1044 29.2285 9.73364 29.5992 9.73364 30.0565C9.73364 30.5138 10.1044 30.8845 10.5616 30.8845Z" fill="#FFC107"/>
<path d="M18.3633 27.4067C18.8206 27.4067 19.1913 27.036 19.1913 26.5787C19.1913 26.1214 18.8206 25.7507 18.3633 25.7507C17.906 25.7507 17.5353 26.1214 17.5353 26.5787C17.5353 27.036 17.906 27.4067 18.3633 27.4067Z" fill="#FFC107"/>
<path d="M25.6864 30.8845C26.1437 30.8845 26.5144 30.5138 26.5144 30.0565C26.5144 29.5992 26.1437 29.2285 25.6864 29.2285C25.2291 29.2285 24.8584 29.5992 24.8584 30.0565C24.8584 30.5138 25.2291 30.8845 25.6864 30.8845Z" fill="#FFC107"/>
<path d="M33.2396 23.322C33.6969 23.322 34.0676 22.9513 34.0676 22.494C34.0676 22.0367 33.6969 21.666 33.2396 21.666C32.7823 21.666 32.4116 22.0367 32.4116 22.494C32.4116 22.9513 32.7823 23.322 33.2396 23.322Z" fill="#FFC107"/>
<path d="M25.6772 30.3141C25.6404 30.3141 25.6036 30.3049 25.5668 30.2865L18.354 26.8549L10.2672 30.2129C10.1384 30.2681 9.98203 30.2129 9.92683 30.0841C9.87163 29.9553 9.92683 29.7989 10.0556 29.7437H10.0648L18.262 26.3397C18.3264 26.3121 18.4092 26.3121 18.4736 26.3489L25.6312 29.7529L33.0648 22.3193C33.166 22.2181 33.3316 22.2181 33.4328 22.3193C33.534 22.4205 33.534 22.5861 33.4328 22.6873L25.8704 30.2497C25.8152 30.2865 25.7508 30.3141 25.6772 30.3141Z" fill="#FFC107"/>
<path d="M18.124 19.2646C18.5813 19.2646 18.952 18.8939 18.952 18.4366C18.952 17.9794 18.5813 17.6086 18.124 17.6086C17.6667 17.6086 17.296 17.9794 17.296 18.4366C17.296 18.8939 17.6667 19.2646 18.124 19.2646Z" fill="#231F20"/>
<path d="M25.6864 17.8203C26.1437 17.8203 26.5144 17.4496 26.5144 16.9923C26.5144 16.535 26.1437 16.1643 25.6864 16.1643C25.2291 16.1643 24.8584 16.535 24.8584 16.9923C24.8584 17.4496 25.2291 17.8203 25.6864 17.8203Z" fill="#231F20"/>
<path d="M33.0372 20.0835C33.4945 20.0835 33.8652 19.7128 33.8652 19.2555C33.8652 18.7982 33.4945 18.4275 33.0372 18.4275C32.5799 18.4275 32.2092 18.7982 32.2092 19.2555C32.2092 19.7128 32.5799 20.0835 33.0372 20.0835Z" fill="#231F20"/>
<path d="M10.5616 23.322C11.0189 23.322 11.3896 22.9513 11.3896 22.494C11.3896 22.0367 11.0189 21.666 10.5616 21.666C10.1044 21.666 9.73364 22.0367 9.73364 22.494C9.73364 22.9513 10.1044 23.322 10.5616 23.322Z" fill="#231F20"/>
<path d="M10.5617 22.7516C10.4237 22.7516 10.3041 22.632 10.3041 22.494C10.3041 22.402 10.3593 22.31 10.4421 22.264L18.0045 18.1976C18.0321 18.1884 18.0505 18.1792 18.0781 18.17L25.8613 16.7348C25.9073 16.7256 25.9441 16.7256 25.9901 16.744L33.1201 19.0072C33.2581 19.0532 33.3317 19.1912 33.2857 19.3292C33.2397 19.4672 33.1017 19.5408 32.9637 19.4948L25.8889 17.25L18.2069 18.676L10.6813 22.724C10.6445 22.7424 10.5985 22.7516 10.5617 22.7516Z" fill="#231F20"/>
<path d="M39.3943 34.4079H6.46752C6.21912 34.4079 6.01672 34.2055 6.01672 33.9571V13.2203C6.01672 12.9719 6.21912 12.7695 6.46752 12.7695C6.71592 12.7695 6.91832 12.9719 6.91832 13.2203V33.5063H39.3943C39.6427 33.5063 39.8451 33.7087 39.8451 33.9571C39.8451 34.2055 39.6427 34.4079 39.3943 34.4079Z" fill="#231F20"/>
<path d="M7.41517 13.8643H5.51997C5.37277 13.8643 5.25317 13.7447 5.25317 13.6067C5.25317 13.5607 5.26237 13.5147 5.28997 13.4687L6.23757 11.8863C6.31117 11.7575 6.47677 11.7207 6.59637 11.7943C6.63317 11.8127 6.66077 11.8495 6.68837 11.8863L7.63597 13.4687C7.70957 13.5975 7.67277 13.7539 7.54397 13.8275C7.50717 13.8551 7.46117 13.8643 7.41517 13.8643Z" fill="#231F20"/>
<path d="M38.6307 34.9047V33.0095C38.6307 32.8623 38.7503 32.7427 38.8883 32.7427C38.9343 32.7427 38.9803 32.7519 39.0263 32.7795L40.6087 33.7271C40.7375 33.8007 40.7743 33.9663 40.7007 34.0859C40.6823 34.1227 40.6455 34.1503 40.6087 34.1779L39.0263 35.1255C38.8975 35.1991 38.7411 35.1623 38.6675 35.0335C38.6399 34.9967 38.6307 34.9507 38.6307 34.9047Z" fill="#231F20"/>
<path d="M21.6107 10.8376H15.8699C15.5295 10.8376 15.2535 11.1136 15.2535 11.454V14.95C15.2535 15.2904 15.5295 15.5664 15.8699 15.5664H16.4219L17.6363 16.9004V15.5664H21.6107C21.9511 15.5664 22.2271 15.2904 22.2271 14.95V11.454C22.2271 11.1136 21.9511 10.8376 21.6107 10.8376Z" fill="#FFC107"/>
<path d="M21.0128 12.4201H16.468C16.4312 12.4201 16.4036 12.3925 16.4036 12.3557C16.4036 12.3189 16.4312 12.2913 16.468 12.2913H21.0128C21.0496 12.2913 21.0772 12.3189 21.0772 12.3557C21.0772 12.3925 21.0496 12.4201 21.0128 12.4201Z" fill="white"/>
<path d="M20.0008 13.7081H16.468C16.4312 13.7081 16.4036 13.6805 16.4036 13.6437C16.4036 13.6069 16.4312 13.5793 16.468 13.5793H20.0008C20.0376 13.5793 20.0652 13.6069 20.0652 13.6437C20.0652 13.6805 20.0376 13.7081 20.0008 13.7081Z" fill="white"/>
</svg>
