<svg width="40" height="40" viewBox="0 0 40 40" fill="none" xmlns="http://www.w3.org/2000/svg">
<path d="M6.35198 14.0719C6.79998 13.4159 7.27198 12.7839 7.75998 12.1599C7.88798 11.9919 8.03198 11.8239 8.22398 11.7439C8.41598 11.6639 8.68798 11.7279 8.75998 11.9199C8.81598 12.0639 8.75998 12.2159 8.70398 12.3599C8.37598 13.1519 7.95198 13.9039 7.43998 14.5919C7.94398 13.6639 8.67998 12.8799 9.56798 12.3119C9.75998 13.1679 9.61598 14.0719 9.15198 14.8239C9.46398 14.0799 10.096 13.5119 10.872 13.2799C10.768 13.9999 10.488 14.6799 10.048 15.2559C10.336 14.7999 10.704 14.4079 11.136 14.0799C11.216 14.0159 11.312 13.9599 11.416 13.9839C11.584 14.0319 11.576 14.2799 11.512 14.4479C11.384 14.7919 11.208 15.1199 10.984 15.4159C11.152 14.9119 11.616 14.5599 12.152 14.5359C12.36 14.5279 11.384 16.4079 11.312 16.5279C10.888 17.2799 10.92 17.8159 10.872 18.6479C10.752 20.7039 10.544 22.8879 10.736 24.9359C10.792 25.5199 11.744 31.2559 12.176 31.2239C10.744 31.3359 9.45598 31.7759 8.03198 31.6799C7.35198 31.6319 6.07198 31.7519 5.47198 31.4399C4.67198 31.0239 5.11198 28.8159 5.10398 28.0879C5.08798 26.3359 4.78398 24.6159 4.56798 22.8799C4.37598 21.3359 4.24798 19.7519 4.46398 18.1999C4.67198 16.6079 5.43998 15.3759 6.35198 14.0719Z" fill="white"/>
<path d="M8.432 31.752C8.296 31.752 8.152 31.752 8.016 31.736C7.832 31.72 7.592 31.72 7.344 31.72C6.664 31.72 5.88 31.72 5.432 31.488C4.776 31.144 4.896 29.768 4.992 28.76C5.016 28.488 5.04 28.248 5.04 28.088C5.032 26.752 4.848 25.408 4.664 24.096C4.608 23.696 4.552 23.288 4.504 22.888C4.328 21.472 4.176 19.808 4.4 18.192C4.624 16.576 5.4 15.344 6.312 14.032C6.76 13.384 7.24 12.736 7.72 12.12C7.864 11.928 8.008 11.768 8.208 11.688C8.424 11.6 8.728 11.664 8.824 11.896C8.888 12.056 8.832 12.232 8.768 12.384C8.656 12.664 8.528 12.944 8.384 13.216C8.728 12.856 9.12 12.536 9.544 12.264C9.56 12.256 9.584 12.248 9.6 12.256C9.616 12.264 9.632 12.28 9.632 12.296C9.76 12.88 9.744 13.48 9.568 14.048C9.912 13.656 10.36 13.368 10.856 13.216C10.888 13.208 10.92 13.224 10.936 13.248C10.936 13.256 10.944 13.264 10.936 13.28C10.88 13.688 10.76 14.088 10.584 14.464C10.744 14.304 10.912 14.152 11.096 14.016C11.184 13.952 11.304 13.88 11.424 13.912C11.488 13.928 11.544 13.976 11.568 14.032C11.616 14.168 11.616 14.32 11.56 14.448C11.536 14.52 11.504 14.6 11.472 14.672C11.672 14.544 11.904 14.464 12.144 14.456C12.176 14.456 12.208 14.472 12.216 14.496C12.344 14.704 11.368 16.52 11.352 16.536C10.984 17.184 10.968 17.656 10.936 18.32C10.928 18.416 10.928 18.52 10.92 18.632C10.896 19 10.872 19.368 10.848 19.744C10.736 21.456 10.624 23.232 10.784 24.912C10.864 25.752 11.808 31.048 12.16 31.144C12.192 31.144 12.216 31.168 12.224 31.192C12.224 31.224 12.2 31.256 12.168 31.256C11.624 31.296 11.088 31.392 10.568 31.48C9.88 31.624 9.168 31.752 8.432 31.752ZM7.384 31.6C7.624 31.6 7.84 31.6 8.024 31.616C8.896 31.672 9.696 31.536 10.552 31.384C11.024 31.304 11.512 31.216 12.016 31.168C11.872 30.944 11.64 30.288 11.248 28.312C10.96 26.848 10.696 25.24 10.664 24.928C10.504 23.24 10.616 21.464 10.728 19.744C10.752 19.368 10.776 19 10.8 18.632C10.808 18.528 10.808 18.424 10.816 18.328C10.848 17.68 10.872 17.16 11.248 16.496C11.4 16.224 12.096 14.84 12.112 14.592C11.824 14.616 11.56 14.728 11.352 14.928C11.256 15.112 11.144 15.28 11.024 15.448C11.008 15.472 10.968 15.48 10.944 15.464C10.92 15.448 10.904 15.416 10.912 15.392C10.976 15.192 11.096 15.008 11.248 14.856C11.32 14.712 11.384 14.568 11.44 14.424C11.48 14.32 11.488 14.208 11.448 14.104C11.432 14.072 11.408 14.048 11.376 14.04C11.304 14.016 11.224 14.072 11.152 14.12C10.832 14.36 10.552 14.64 10.312 14.96C10.24 15.072 10.168 15.184 10.08 15.296C10.064 15.32 10.024 15.328 10 15.312C9.976 15.296 9.968 15.256 9.984 15.232C10.056 15.12 10.136 15.008 10.216 14.896C10.504 14.432 10.704 13.912 10.792 13.376C10.224 13.568 9.744 13.952 9.416 14.456C9.352 14.6 9.28 14.736 9.2 14.864C9.184 14.888 9.152 14.904 9.12 14.888C9.088 14.872 9.08 14.84 9.096 14.808C9.152 14.664 9.224 14.528 9.312 14.4C9.584 13.776 9.656 13.088 9.528 12.424C8.992 12.784 8.512 13.216 8.104 13.72C7.92 14.04 7.712 14.344 7.488 14.64C7.472 14.664 7.432 14.672 7.408 14.656C7.384 14.64 7.376 14.6 7.392 14.576C7.568 14.248 7.776 13.944 8.008 13.656C8.256 13.24 8.472 12.8 8.656 12.352C8.712 12.224 8.76 12.08 8.712 11.96C8.648 11.8 8.416 11.752 8.248 11.816C8.08 11.88 7.944 12.032 7.808 12.208C7.32 12.824 6.848 13.472 6.4 14.12C5.496 15.424 4.736 16.632 4.512 18.232C4.288 19.832 4.44 21.488 4.616 22.896C4.664 23.296 4.72 23.704 4.776 24.104C4.952 25.408 5.144 26.76 5.152 28.104C5.152 28.272 5.128 28.512 5.104 28.784C5.024 29.704 4.896 31.096 5.48 31.4C5.904 31.616 6.696 31.616 7.336 31.616H7.384V31.6Z" fill="#231F20"/>
<path d="M12.832 32.5279C12.784 32.2319 11.544 27.2559 11.544 27.2559L4.40796 25.9919L4.53596 32.2959L12.832 32.5279Z" fill="#4D4D4D"/>
<path d="M10.848 28.6639L5.56796 28.1359C5.53596 28.1359 5.51196 28.1039 5.51196 28.0719C5.51196 28.0399 5.54396 28.0159 5.57596 28.0159L10.848 28.5439C10.88 28.5439 10.904 28.5759 10.904 28.6079C10.904 28.6479 10.872 28.6639 10.848 28.6639Z" fill="#231F20"/>
<path d="M19.88 7.84814V17.5601H32.008C32.008 17.3121 32.032 16.6561 32.008 16.4081C31.536 11.3921 26.264 7.84814 19.88 7.84814Z" fill="#231F20"/>
<path d="M32.0721 17.6162H19.8241V7.78418H19.8881C23.0161 7.78418 25.9681 8.64018 28.2001 10.2002C30.4641 11.7842 31.8401 13.9842 32.0721 16.4082C32.0881 16.5842 32.0801 16.9602 32.0801 17.2642C32.0801 17.3842 32.0801 17.4882 32.0801 17.5602L32.0721 17.6162ZM19.9441 17.4962H31.9521C31.9521 17.4322 31.9521 17.3442 31.9521 17.2562C31.9601 16.9682 31.9601 16.5842 31.9521 16.4082C31.7281 14.0242 30.3681 11.8482 28.1281 10.2882C25.9281 8.76018 23.0241 7.91218 19.9441 7.89618V17.4962Z" fill="#231F20"/>
<path d="M19.88 6.69604V16.408H32.008C32.008 11.048 26.576 6.69604 19.88 6.69604Z" fill="#262525"/>
<path d="M20.13 6.95093C26.5185 7.05568 31.5897 11.1626 31.754 16.158H20.13V6.95093Z" stroke="white" stroke-opacity="0.16" stroke-width="0.5"/>
<path d="M32.008 16.4721H19.88C19.848 16.4721 19.816 16.4481 19.816 16.4081V6.69608C19.816 6.66408 19.84 6.63208 19.88 6.63208C26.6 6.63208 32.064 11.0161 32.064 16.4001C32.072 16.4401 32.04 16.4721 32.008 16.4721ZM19.944 16.3521H31.952C31.912 11.0721 26.544 6.78408 19.944 6.76008V16.3521Z" fill="#231F20"/>
<path d="M6.41602 19.2401C6.41602 24.6081 11.84 28.9521 18.544 28.9521C25.248 28.9521 30.672 24.6001 30.672 19.2401V17.9841L18.544 19.2401V9.52808C11.84 9.52808 6.41602 13.8801 6.41602 19.2401Z" fill="#231F20"/>
<path d="M6.41602 17.984C6.41602 23.344 11.84 27.696 18.544 27.696C25.248 27.696 30.672 23.344 30.672 17.984H18.536V8.27197C11.84 8.27197 6.41602 12.624 6.41602 17.984Z" fill="#FFC107"/>
<path d="M18.336 28.8081C18.304 28.8081 18.28 28.784 18.28 28.744L18.488 17.976C18.488 17.952 18.504 17.936 18.52 17.92C18.544 17.912 18.568 17.9121 18.584 17.9281L26.84 25.328C26.864 25.352 26.864 25.3921 26.848 25.4161C26.832 25.4401 26.784 25.44 26.76 25.424L18.6 18.112L18.4 28.744C18.392 28.784 18.368 28.8081 18.336 28.8081Z" fill="white"/>
<path d="M5.30396 18.6639L7.30396 16.5919C7.67196 16.2079 8.09596 15.7999 8.62396 15.7839C8.82396 15.7759 9.06395 15.8639 9.11195 16.0559C9.15195 16.2079 9.06396 16.3599 8.98395 16.4879C8.35996 17.4639 7.68795 18.4159 6.97595 19.3359C7.94395 20.2319 7.99995 21.7519 7.10396 22.7199C7.05596 22.7679 7.00795 22.8239 6.95195 22.8719" fill="white"/>
<path d="M6.94398 22.9279C6.92798 22.9279 6.91198 22.9199 6.89598 22.9119C6.87198 22.8879 6.87198 22.8479 6.90398 22.8239C7.86398 21.9599 7.93598 20.4799 7.07198 19.5279C7.02398 19.4799 6.97598 19.4319 6.92798 19.3839C6.90398 19.3599 6.90398 19.3279 6.91998 19.3039C7.63198 18.3919 8.30398 17.4319 8.92798 16.4639C9.00798 16.3439 9.07998 16.2079 9.04798 16.0799C9.00798 15.9199 8.79998 15.8479 8.61598 15.8479C8.11998 15.8639 7.71198 16.2479 7.33598 16.6399L5.33598 18.7119C5.31198 18.7359 5.27198 18.7359 5.24798 18.7119C5.22398 18.6879 5.22398 18.6479 5.24798 18.6239L7.24798 16.5519C7.63998 16.1439 8.07198 15.7439 8.60798 15.7199C8.83198 15.7119 9.09598 15.8079 9.15998 16.0399C9.20798 16.2079 9.11198 16.3759 9.02398 16.5199C8.40798 17.4799 7.74398 18.4239 7.03998 19.3279C8.01598 20.2719 8.03998 21.8239 7.08798 22.7999C7.04798 22.8399 7.00798 22.8719 6.97598 22.9119C6.96798 22.9279 6.95998 22.9279 6.94398 22.9279Z" fill="#231F20"/>
<path d="M29.7121 28.432C29.8481 26.848 30.8161 20.856 30.4161 19.696C30.2001 19.072 29.6401 18.68 29.1281 18.312C28.6721 17.984 27.8721 17.544 27.7761 16.952C27.7441 16.824 27.7761 16.688 27.8561 16.584C27.9441 16.488 28.0961 16.472 28.2241 16.472C28.7841 16.496 29.1761 16.896 29.6881 17.032C30.2001 17.168 30.6321 17.528 31.1601 17.672C31.5201 17.776 31.9441 17.728 32.1841 17.448C32.3281 17.288 32.3841 17.072 32.4241 16.856C32.8401 14.784 31.9841 12.504 30.3041 11.224C30.0961 11.072 29.8561 10.808 30.0001 10.6C30.1201 10.424 30.3841 10.464 30.5761 10.544C32.0561 11.136 33.0881 12.624 33.3761 14.16C33.2321 13.392 33.1121 12.632 32.8321 11.896C32.6721 11.472 31.8241 10.648 32.2401 10.216C32.3681 10.104 32.5441 10.08 32.6961 10.144C32.8481 10.208 32.9761 10.312 33.0801 10.432C34.0481 11.464 34.4321 13.008 34.7201 14.352C34.7121 13.4 34.5681 12.464 34.2961 11.552C34.2001 11.24 34.0961 10.92 34.1041 10.592C34.1041 10.496 34.1281 10.4 34.1921 10.32C34.3681 10.128 34.6881 10.312 34.8321 10.52C35.0481 10.824 35.1601 11.176 35.2721 11.528C35.6241 12.616 35.9681 13.752 35.8001 14.888C35.8961 14.136 35.9201 13.368 35.8561 12.608C35.8161 12.168 35.7521 11.712 35.8401 11.28C36.0721 10.136 36.7521 11.904 36.8161 12.2C36.9841 12.984 36.9761 13.808 36.9201 14.608C36.7441 17.088 35.9601 19.504 35.9521 21.968L35.9361 27.008" fill="white"/>
<path d="M29.712 28.4881C29.672 28.4881 29.648 28.4561 29.656 28.4241C29.688 28.0001 29.784 27.2641 29.896 26.4001C30.2 24.0721 30.648 20.5521 30.36 19.7041C30.152 19.1121 29.624 18.7361 29.12 18.3681L29.096 18.3521C29.024 18.3041 28.944 18.2481 28.856 18.1921C28.384 17.8801 27.8 17.4801 27.72 16.9601C27.688 16.8161 27.72 16.6641 27.816 16.5441C27.904 16.4481 28.04 16.4081 28.232 16.4161C28.576 16.4321 28.856 16.5841 29.128 16.7201C29.312 16.8241 29.504 16.9121 29.712 16.9761C29.976 17.0561 30.232 17.1681 30.472 17.3041C30.696 17.4321 30.936 17.5361 31.176 17.6161C31.464 17.6961 31.896 17.6961 32.144 17.4161C32.272 17.2641 32.336 17.0561 32.376 16.8561C32.792 14.8001 31.952 12.5601 30.28 11.2881C29.944 11.0321 29.832 10.7761 29.96 10.5761C30.072 10.4081 30.312 10.3841 30.608 10.4961C31.696 10.9361 32.608 11.8881 33.112 13.0721C33.032 12.6801 32.92 12.3041 32.784 11.9281C32.712 11.7681 32.624 11.6241 32.52 11.4801C32.232 11.0481 31.88 10.5201 32.208 10.1841C32.352 10.0561 32.552 10.0241 32.728 10.0961C32.888 10.1681 33.024 10.2721 33.136 10.4001C33.952 11.2721 34.36 12.4961 34.64 13.6801C34.584 12.9681 34.456 12.2641 34.248 11.5761L34.216 11.4721C34.128 11.1841 34.04 10.8961 34.056 10.5921C34.056 10.4801 34.088 10.3681 34.16 10.2801C34.224 10.2081 34.32 10.1761 34.416 10.1841C34.608 10.2001 34.8 10.3521 34.896 10.4881C35.12 10.8001 35.24 11.1761 35.344 11.5121C35.528 12.0801 35.736 12.7361 35.84 13.4161C35.84 13.1521 35.824 12.8801 35.8 12.6161C35.792 12.5521 35.792 12.4801 35.784 12.4161C35.752 12.0401 35.712 11.6481 35.784 11.2721C35.84 10.9841 35.936 10.8401 36.072 10.8401C36.432 10.8401 36.84 12.0081 36.88 12.1921C37.064 13.0481 37.032 13.9361 36.984 14.6161C36.904 15.7201 36.704 16.8161 36.512 17.8801C36.272 19.2161 36.016 20.6001 36.016 21.9761L36 27.0161C36 27.0481 35.976 27.0721 35.936 27.0721C35.904 27.0721 35.88 27.0481 35.88 27.0161L35.896 21.9761C35.896 20.5921 36.152 19.2081 36.392 17.8641C36.584 16.8001 36.784 15.7041 36.864 14.6081C36.912 13.9361 36.944 13.0561 36.768 12.2161C36.704 11.9281 36.304 10.9601 36.08 10.9601C36.048 10.9601 35.968 10.9921 35.912 11.2961C35.84 11.6561 35.872 12.0401 35.912 12.4081L35.928 12.6081C35.984 13.3041 35.976 14.0001 35.896 14.6881C35.888 14.7601 35.88 14.8321 35.872 14.8961C35.864 14.9281 35.832 14.9521 35.8 14.9441C35.768 14.9361 35.752 14.9121 35.752 14.8801C35.76 14.8081 35.768 14.7361 35.776 14.6641C35.88 13.5841 35.528 12.5121 35.224 11.5521C35.112 11.2081 35 10.8561 34.792 10.5601C34.704 10.4241 34.56 10.3361 34.4 10.3041C34.336 10.2961 34.28 10.3201 34.24 10.3681C34.192 10.4321 34.16 10.5201 34.168 10.6001C34.16 10.8801 34.24 11.1681 34.328 11.4401L34.36 11.5441C34.632 12.4561 34.776 13.4081 34.784 14.3601C34.784 14.3921 34.76 14.4161 34.728 14.4241C34.696 14.4241 34.672 14.4081 34.664 14.3761C34.376 13.0241 33.992 11.4961 33.04 10.4801C32.944 10.3601 32.816 10.2721 32.68 10.2081C32.552 10.1521 32.4 10.1761 32.288 10.2721C32.024 10.5441 32.352 11.0321 32.616 11.4241C32.72 11.5681 32.816 11.7281 32.896 11.8961C33.136 12.5361 33.256 13.1761 33.384 13.8561C33.4 13.9601 33.424 14.0641 33.44 14.1681C33.44 14.2001 33.424 14.2321 33.384 14.2321C33.352 14.2321 33.328 14.2161 33.32 14.1841C33.016 12.5681 31.928 11.1681 30.56 10.6161C30.376 10.5441 30.152 10.5121 30.056 10.6481C29.928 10.8401 30.216 11.0961 30.344 11.1921C32.056 12.4881 32.912 14.7761 32.488 16.8801C32.44 17.0961 32.384 17.3281 32.232 17.4961C31.952 17.8161 31.472 17.8241 31.144 17.7361C30.888 17.6561 30.648 17.5441 30.416 17.4161C30.184 17.2801 29.936 17.1761 29.68 17.0961C29.472 17.0321 29.264 16.9441 29.072 16.8321C28.8 16.6881 28.544 16.5521 28.224 16.5361C28.072 16.5281 27.968 16.5601 27.904 16.6241C27.824 16.7121 27.832 16.8641 27.84 16.9441C27.912 17.4161 28.472 17.7921 28.92 18.0961C29.008 18.1521 29.088 18.2081 29.16 18.2641L29.184 18.2801C29.68 18.6401 30.248 19.0481 30.472 19.6721C30.776 20.5441 30.336 23.9361 30.016 26.4241C29.904 27.2801 29.808 28.0241 29.776 28.4401C29.76 28.4721 29.736 28.4881 29.712 28.4881Z" fill="#231F20"/>
<path d="M28.064 32.3601C28.12 31.4801 29.232 25.6801 29.232 25.6801L36.376 24.7441L36.608 32.1841L28.064 32.3601Z" fill="#4D4D4D"/>
<path d="M30 27.264C29.968 27.264 29.944 27.24 29.944 27.2C29.944 27.168 29.968 27.144 29.992 27.144L35.552 26.384C35.584 26.384 35.616 26.4 35.624 26.432C35.632 26.464 35.608 26.496 35.576 26.496L30 27.264Z" fill="#231F20"/>
</svg>
