<svg width="40" height="40" viewBox="0 0 40 40" fill="none" xmlns="http://www.w3.org/2000/svg">
<path d="M21.24 14.1919C21.24 14.1919 20.424 12.5839 18.584 13.0319C18.68 13.5199 18.992 13.9359 19.424 14.1759C20.168 14.5999 21.24 14.1919 21.24 14.1919Z" fill="#231F20"/>
<path d="M21.4 24.6C21.336 24.6 21.288 24.552 21.288 24.488V12.176C21.288 12.112 21.336 12.064 21.4 12.064C21.464 12.064 21.512 12.112 21.512 12.176V24.488C21.512 24.552 21.464 24.6 21.4 24.6Z" fill="#231F20"/>
<path d="M22.9679 15.04C22.9679 15.04 24.6959 14.576 25.4559 16.624C25.4559 16.624 24.7599 16.856 23.9599 16.408C23.1199 15.936 22.9679 15.04 22.9679 15.04Z" fill="#231F20"/>
<path d="M19.7919 16.6639C19.7919 16.6639 19.5519 18.4399 17.3679 18.3519C17.3679 18.3519 17.4239 17.6239 18.1439 17.0559C18.9039 16.4639 19.7919 16.6639 19.7919 16.6639Z" fill="#231F20"/>
<path d="M21.3999 12.1758C22.637 12.1758 23.6399 11.1729 23.6399 9.9358C23.6399 8.69868 22.637 7.6958 21.3999 7.6958C20.1628 7.6958 19.1599 8.69868 19.1599 9.9358C19.1599 11.1729 20.1628 12.1758 21.3999 12.1758Z" fill="white"/>
<path d="M21.3999 12.2319C20.1359 12.2319 19.1039 11.2079 19.1039 9.93589C19.1039 8.67189 20.1279 7.63989 21.3999 7.63989C22.6719 7.63989 23.6959 8.66389 23.6959 9.93589C23.6959 11.2079 22.6719 12.2319 21.3999 12.2319ZM21.3999 7.75989C20.1919 7.75989 19.2159 8.73589 19.2159 9.94389C19.2159 11.1519 20.1919 12.1279 21.3999 12.1279C22.6079 12.1279 23.5839 11.1519 23.5839 9.94389C23.5839 8.73589 22.6079 7.75989 21.3999 7.75989Z" fill="#231F20"/>
<path d="M21.3999 11.7839C20.3839 11.7839 19.5599 10.9599 19.5679 9.94387C19.5679 8.92787 20.3919 8.10387 21.4079 8.11187C22.4239 8.11187 23.2399 8.93587 23.2479 9.95187C23.2399 10.9599 22.4159 11.7839 21.3999 11.7839ZM21.3999 8.20787C20.4399 8.20787 19.6639 8.98387 19.6639 9.94387C19.6639 10.9039 20.4399 11.6799 21.3999 11.6799C22.3599 11.6799 23.1279 10.9039 23.1279 9.94387C23.1359 8.98387 22.3599 8.20787 21.3999 8.20787Z" fill="#161616" fill-opacity="0.2"/>
<path d="M21.4879 10.8559V11.1039H21.2959V10.8479C20.9039 10.8079 20.6319 10.5999 20.5759 10.2159L20.9919 10.1439C21.0399 10.3439 21.1359 10.4479 21.3039 10.4799V10.0639C20.9759 9.98388 20.6239 9.87988 20.6239 9.52788C20.6239 9.21588 20.8959 9.00788 21.3039 8.99188V8.77588H21.4959V8.99988C21.8559 9.03988 22.1039 9.23988 22.1759 9.52788L21.7599 9.61588C21.7279 9.48788 21.6239 9.39188 21.4959 9.35988V9.71188C21.8319 9.79188 22.2399 9.89588 22.2399 10.2959C22.2319 10.6319 21.9519 10.8479 21.4879 10.8559ZM21.2959 9.68788V9.35988C21.1359 9.36788 21.0479 9.42388 21.0479 9.52788C21.0399 9.60788 21.1439 9.64788 21.2959 9.68788ZM21.8079 10.3199C21.8079 10.2079 21.6719 10.1599 21.4879 10.1119V10.4959C21.6959 10.4879 21.7999 10.4239 21.8079 10.3199Z" fill="#FFC107"/>
<path d="M21.296 17.8639C21.272 17.8639 21.256 17.8559 21.232 17.8479L16.664 14.9679C16.608 14.9359 16.6 14.8639 16.632 14.8159C16.664 14.7599 16.736 14.7519 16.784 14.7839L21.352 17.6639C21.408 17.6959 21.424 17.7679 21.384 17.8159C21.368 17.8399 21.336 17.8559 21.296 17.8639Z" fill="#231F20"/>
<path d="M21.488 15.9438C21.424 15.9438 21.376 15.8958 21.376 15.8318C21.376 15.7918 21.392 15.7598 21.424 15.7358L25.464 13.1358C25.52 13.1038 25.584 13.1198 25.616 13.1678C25.648 13.2238 25.632 13.2878 25.584 13.3198L21.544 15.9198C21.528 15.9358 21.512 15.9438 21.488 15.9438Z" fill="#231F20"/>
<path d="M16.352 16.1678C17.2533 16.1678 17.984 15.4371 17.984 14.5358C17.984 13.6345 17.2533 12.9038 16.352 12.9038C15.4506 12.9038 14.72 13.6345 14.72 14.5358C14.72 15.4371 15.4506 16.1678 16.352 16.1678Z" fill="white"/>
<path d="M16.3519 16.2239C15.4239 16.2239 14.6639 15.4719 14.6639 14.5359C14.6639 13.6079 15.4159 12.8479 16.3519 12.8479C17.2799 12.8479 18.0399 13.5999 18.0399 14.5359C18.0399 15.4639 17.2879 16.2239 16.3519 16.2239ZM16.3519 12.9599C15.4799 12.9599 14.7759 13.6639 14.7759 14.5359C14.7759 15.4079 15.4799 16.1119 16.3519 16.1119C17.2239 16.1119 17.9279 15.4079 17.9279 14.5359C17.9279 13.6639 17.2239 12.9599 16.3519 12.9599Z" fill="#231F20"/>
<path d="M16.3519 15.8958C15.5999 15.8958 14.9919 15.2878 14.9919 14.5358C14.9919 13.7838 15.5999 13.1758 16.3519 13.1758C17.1039 13.1758 17.7119 13.7838 17.7119 14.5358C17.7119 15.2878 17.1039 15.8958 16.3519 15.8958ZM16.3519 13.2878C15.6639 13.2878 15.1039 13.8478 15.1039 14.5358C15.1039 15.2238 15.6639 15.7838 16.3519 15.7838C17.0399 15.7838 17.5999 15.2238 17.5999 14.5358C17.5999 13.8478 17.0479 13.2878 16.3519 13.2878Z" fill="#161616" fill-opacity="0.2"/>
<path d="M16.4159 15.2V15.376H16.2719V15.2C15.9919 15.168 15.7839 15.016 15.7439 14.744L16.0479 14.688C16.0639 14.808 16.1519 14.912 16.2719 14.936V14.632C16.0319 14.576 15.7759 14.496 15.7759 14.24C15.7759 14.016 15.9759 13.864 16.2719 13.848V13.688H16.4159V13.856C16.6799 13.888 16.8639 14.032 16.9119 14.24L16.6079 14.304C16.5839 14.208 16.5039 14.144 16.4159 14.12V14.376C16.6639 14.432 16.9599 14.512 16.9599 14.8C16.9599 15.04 16.7599 15.2 16.4159 15.2ZM16.2799 14.344V14.104C16.1679 14.112 16.0959 14.152 16.0959 14.224C16.0959 14.288 16.1679 14.32 16.2799 14.344ZM16.6479 14.808C16.6479 14.728 16.5519 14.688 16.4159 14.656V14.936C16.5679 14.936 16.6479 14.888 16.6479 14.808Z" fill="#FFC107"/>
<path d="M26.232 14.8719C27.1333 14.8719 27.864 14.1412 27.864 13.2399C27.864 12.3386 27.1333 11.6079 26.232 11.6079C25.3306 11.6079 24.6 12.3386 24.6 13.2399C24.6 14.1412 25.3306 14.8719 26.232 14.8719Z" fill="white"/>
<path d="M26.2319 14.928C25.2959 14.928 24.5439 14.176 24.5439 13.24C24.5439 12.304 25.2959 11.552 26.2319 11.552C27.1679 11.552 27.9199 12.304 27.9199 13.24C27.9199 14.168 27.1679 14.92 26.2319 14.928ZM26.2319 11.664C25.3599 11.664 24.6559 12.368 24.6559 13.24C24.6559 14.112 25.3599 14.816 26.2319 14.816C27.1039 14.816 27.8079 14.112 27.8079 13.24C27.8079 12.368 27.1039 11.664 26.2319 11.664Z" fill="#231F20"/>
<path d="M26.2319 14.5999C25.4799 14.5999 24.8719 13.9919 24.8719 13.2399C24.8719 12.4879 25.4799 11.8799 26.2319 11.8799C26.9839 11.8799 27.5919 12.4879 27.5919 13.2399C27.5919 13.9919 26.9839 14.5999 26.2319 14.5999ZM26.2319 11.9919C25.5439 11.9919 24.9839 12.5519 24.9839 13.2399C24.9839 13.9279 25.5439 14.4879 26.2319 14.4879C26.9199 14.4879 27.4799 13.9279 27.4799 13.2399C27.4799 12.5439 26.9199 11.9919 26.2319 11.9919Z" fill="#161616" fill-opacity="0.2"/>
<path d="M26.2959 13.9038V14.0798H26.1519V13.8958C25.8719 13.8638 25.6639 13.7118 25.6239 13.4398L25.9279 13.3838C25.9439 13.5038 26.0319 13.6078 26.1519 13.6318V13.3278C25.9119 13.2718 25.6559 13.1918 25.6559 12.9358C25.6559 12.7118 25.8559 12.5598 26.1519 12.5438V12.3838H26.2959V12.5518C26.5599 12.5838 26.7439 12.7278 26.7919 12.9358L26.4879 12.9998C26.4639 12.9038 26.3919 12.8398 26.2959 12.8158V13.0718C26.5439 13.1278 26.8399 13.2078 26.8399 13.4958C26.8399 13.7438 26.6319 13.8958 26.2959 13.9038ZM26.1519 13.0478V12.8078C26.0399 12.8158 25.9679 12.8558 25.9679 12.9278C25.9679 12.9918 26.0479 13.0238 26.1519 13.0478ZM26.5279 13.5118C26.5279 13.4318 26.4319 13.3918 26.2959 13.3598V13.6398C26.4479 13.6398 26.5279 13.5918 26.5279 13.5118Z" fill="#FFC107"/>
<path d="M11.728 30.4639H14.32V19.6959H15.872L13.024 16.4399L10.168 19.6959H11.728V30.4639Z" fill="#FFC107"/>
<path d="M7.28 30.4639H9.248V26.1119H10.424L8.264 23.6479L6.104 26.1119H7.28V30.4639Z" fill="#FFC107"/>
<path d="M29.752 30.4639H32.344V15.3519H33.896L31.048 12.0959L28.2 15.3519H29.752V30.4639Z" fill="#FFC107"/>
<path d="M19.672 21.5121C19.672 21.5121 18.08 20.5121 17.344 20.0641C16.608 19.6161 17.272 19.3521 17.768 19.4241C17.768 19.4241 18.4 18.7441 18.936 19.1921C18.936 19.1921 19.288 18.6561 20.104 18.4721C20.92 18.2881 22.544 18.7041 22.544 18.7041C22.544 18.7041 23.248 18.0641 23.76 18.2641C24.272 18.4641 23.944 18.9201 23.944 18.9201C23.944 18.9201 25.4 19.1361 25.216 19.5041C25.032 19.8721 23.304 20.5441 22.952 20.9521C22.6 21.3601 22.432 21.5681 22.432 21.5681L19.672 21.5121Z" fill="white"/>
<path d="M22.432 21.6241L19.68 21.5681C19.672 21.5681 19.656 21.5681 19.648 21.5601C19.632 21.5521 18.048 20.5601 17.32 20.1121C17.04 19.9441 16.92 19.7761 16.976 19.6241C17.048 19.4161 17.432 19.3281 17.752 19.3681C17.864 19.2561 18.424 18.7521 18.928 19.1201C19.224 18.7681 19.632 18.5201 20.088 18.4241C20.856 18.2401 22.296 18.5921 22.528 18.6481C22.656 18.5361 23.288 18.0241 23.784 18.2241C23.952 18.2881 24.056 18.3921 24.096 18.5201C24.128 18.6481 24.104 18.7761 24.04 18.8881C24.32 18.9361 25.136 19.0961 25.272 19.3601C25.304 19.4161 25.304 19.4801 25.272 19.5361C25.168 19.7441 24.648 20.0161 24.104 20.3121C23.64 20.5601 23.16 20.8081 23 21.0001C22.648 21.4001 22.48 21.6081 22.48 21.6161C22.464 21.6161 22.448 21.6241 22.432 21.6241ZM19.688 21.4561L22.4 21.5121C22.448 21.4481 22.616 21.2481 22.912 20.9121C23.088 20.7121 23.552 20.4641 24.048 20.2001C24.544 19.9361 25.08 19.6561 25.168 19.4721C25.184 19.4481 25.184 19.4161 25.168 19.3921C25.056 19.1761 24.24 19.0081 23.936 18.9601C23.92 18.9601 23.896 18.9441 23.896 18.9281C23.888 18.9121 23.888 18.8881 23.904 18.8721C23.904 18.8721 24.032 18.6881 23.984 18.5281C23.944 18.4241 23.856 18.3361 23.744 18.3041C23.264 18.1121 22.592 18.7201 22.584 18.7281C22.568 18.7441 22.552 18.7441 22.536 18.7441C22.52 18.7361 20.912 18.3281 20.12 18.5121C19.328 18.6961 18.992 19.2081 18.992 19.2161C18.984 19.2321 18.968 19.2401 18.952 19.2401C18.936 19.2401 18.92 19.2401 18.904 19.2321C18.416 18.8241 17.824 19.4561 17.816 19.4561C17.8 19.4721 17.784 19.4721 17.768 19.4721C17.464 19.4321 17.128 19.5201 17.08 19.6561C17.048 19.7441 17.152 19.8801 17.376 20.0161C18.072 20.4401 19.536 21.3601 19.688 21.4561Z" fill="#231F20"/>
<path d="M19.968 21.6481C19.968 21.6481 17.488 23.4001 16.232 24.8961C15.32 25.9841 15.36 28.5201 15.456 29.8241C15.488 30.2721 15.992 30.6321 16.608 30.6321H25.736C26.32 30.6321 26.816 30.3041 26.88 29.8721C27.024 28.9121 27.2 27.2321 26.88 26.1361C26.4 24.5121 22.816 22.0001 22.664 21.6401H19.968V21.6481Z" fill="white"/>
<path d="M25.7439 30.6961H16.6079C15.9679 30.6961 15.4319 30.3201 15.3999 29.8401C15.3039 28.4561 15.2719 25.9681 16.1919 24.8721C17.4399 23.3841 19.9119 21.6321 19.9359 21.6081C19.9439 21.6001 19.9599 21.6001 19.9679 21.6001H22.6639C22.6879 21.6001 22.7039 21.6161 22.7119 21.6321C22.7519 21.7281 23.1439 22.0561 23.5919 22.4401C24.7119 23.3921 26.584 24.9761 26.9279 26.1281C27.2559 27.2481 27.072 28.9681 26.936 29.8881C26.872 30.3521 26.3519 30.6961 25.7439 30.6961ZM19.9919 21.7041C19.7839 21.8481 17.4719 23.5121 16.2799 24.9361C15.3919 26.0001 15.4159 28.4561 15.5119 29.8241C15.5439 30.2481 16.0239 30.5761 16.6079 30.5761H25.736C26.296 30.5761 26.7679 30.2721 26.8239 29.8641C26.9599 28.9521 27.1439 27.2561 26.8239 26.1521C26.4959 25.0321 24.6399 23.4561 23.5279 22.5201C23.0079 22.0801 22.7199 21.8321 22.6319 21.7041H19.9919Z" fill="#231F20"/>
<path d="M22.048 21.5442C22.04 21.5442 22.0319 21.5442 22.0239 21.5362C21.9999 21.5202 21.9839 21.4882 21.9919 21.4642C22.2399 20.9362 22.5519 20.4322 22.9039 19.9682C22.9199 19.9442 22.9599 19.9362 22.9839 19.9522C23.0079 19.9682 23.0159 20.0002 22.9999 20.0322C22.6479 20.4882 22.3519 20.9842 22.1039 21.5042C22.0879 21.5362 22.072 21.5442 22.048 21.5442Z" fill="#161616" fill-opacity="0.2"/>
<path d="M20.9279 21.6082C20.9039 21.6082 20.8799 21.5922 20.8719 21.5682C20.5839 20.7122 19.5279 19.5762 19.5119 19.5602C19.4879 19.5362 19.4879 19.5042 19.5119 19.4802C19.5359 19.4562 19.5679 19.4562 19.5919 19.4802C19.6319 19.5202 20.4159 20.3682 20.8159 21.1602C20.7439 20.6642 20.6239 20.1762 20.4559 19.7042C20.4479 19.6722 20.4639 19.6402 20.4879 19.6322C20.5199 19.6242 20.5519 19.6402 20.5599 19.6642C20.7759 20.2722 20.9119 20.9042 20.9759 21.5442C20.9839 21.5682 20.9599 21.5922 20.9279 21.6082Z" fill="#161616" fill-opacity="0.2"/>
<path d="M20.144 21.5841C20.12 21.5841 20.104 21.5681 20.096 21.5521C19.888 21.0641 19.12 20.5841 19.112 20.5841C19.088 20.5681 19.08 20.5361 19.096 20.5041C19.112 20.4801 19.144 20.4721 19.176 20.4881C19.208 20.5041 19.976 20.9841 20.2 21.5121C20.216 21.5441 20.2 21.5761 20.168 21.5841C20.152 21.5841 20.144 21.5841 20.144 21.5841Z" fill="#161616" fill-opacity="0.2"/>
<path d="M18.2239 24.8801C18.2159 24.8801 18.2079 24.8801 18.1919 24.8721C18.1679 24.8561 18.1519 24.8241 18.1679 24.8001C19.0639 23.2481 20.4559 21.9281 20.4719 21.9121C20.4959 21.8881 20.5279 21.8961 20.5519 21.9121C20.5679 21.9281 20.5679 21.9521 20.5599 21.9761C20.5519 21.9921 19.7679 23.4641 19.6079 24.2001C19.5999 24.2321 19.5679 24.2481 19.5439 24.2401C19.5199 24.2321 19.4959 24.2001 19.5039 24.1761C19.6239 23.6321 20.0559 22.7201 20.3039 22.2401C19.8639 22.6961 18.9359 23.7121 18.2799 24.8481C18.2639 24.8721 18.2399 24.8801 18.2239 24.8801Z" fill="#161616" fill-opacity="0.2"/>
<path d="M24.432 24.7362C24.408 24.7362 24.392 24.7202 24.384 24.7042C23.784 23.3682 21.6 21.7922 21.576 21.7762C21.552 21.7602 21.544 21.7202 21.568 21.6962C21.584 21.6722 21.616 21.6642 21.64 21.6802C21.728 21.7442 23.88 23.2882 24.488 24.6482C24.504 24.6722 24.488 24.7122 24.464 24.7202C24.456 24.7362 24.44 24.7362 24.432 24.7362Z" fill="#161616" fill-opacity="0.2"/>
<path d="M22.1919 23.9601C22.1679 23.9601 22.1439 23.9441 22.1359 23.9201C22.0239 23.5441 21.8319 23.1921 21.5679 22.8961C21.5439 22.8721 21.5439 22.8401 21.5679 22.8161C21.5919 22.7921 21.6239 22.7921 21.6479 22.8161C21.9279 23.1201 22.1279 23.4881 22.2479 23.8881C22.2559 23.9201 22.2399 23.9521 22.2079 23.9601C22.2079 23.9601 22.1999 23.9601 22.1919 23.9601Z" fill="#161616" fill-opacity="0.2"/>
<path d="M19.592 21.28H22.664C22.824 21.28 22.952 21.408 22.952 21.568C22.952 21.728 22.824 21.856 22.664 21.856H19.592C19.432 21.856 19.304 21.728 19.304 21.568C19.304 21.408 19.432 21.28 19.592 21.28Z" fill="#231F20"/>
<path d="M22.664 21.9121H19.592C19.4 21.9041 19.256 21.7441 19.264 21.5521C19.272 21.3761 19.416 21.2321 19.592 21.2241H22.664C22.856 21.2321 23 21.3921 22.992 21.5841C22.984 21.7681 22.84 21.9041 22.664 21.9121ZM19.592 21.3361C19.464 21.3441 19.368 21.4561 19.376 21.5841C19.384 21.7041 19.48 21.8001 19.592 21.8001H22.664C22.792 21.7921 22.888 21.6801 22.88 21.5521C22.872 21.4321 22.776 21.3361 22.664 21.3361H19.592Z" fill="#231F20"/>
<path d="M11.8321 31.4799L10.2001 30.5599L10.2481 28.3439C10.2481 28.3439 16.8161 28.3199 16.8801 28.3439C17.4081 28.5439 17.9121 28.8159 18.3761 29.1439L11.8321 31.4799Z" fill="white"/>
<path d="M11.832 31.5361C11.824 31.5361 11.816 31.5361 11.808 31.5281L10.176 30.6161C10.16 30.6081 10.144 30.5841 10.144 30.5681L10.192 28.3521C10.192 28.3201 10.216 28.2961 10.248 28.2961C12.704 28.2881 16.832 28.2801 16.896 28.2961C17.432 28.5041 17.936 28.7761 18.408 29.1041C18.424 29.1201 18.432 29.1361 18.432 29.1601C18.432 29.1841 18.416 29.2001 18.392 29.2081L11.848 31.5441C11.848 31.5361 11.84 31.5361 11.832 31.5361ZM10.256 30.5281L11.84 31.4161L18.256 29.1281C17.824 28.8321 17.352 28.5841 16.864 28.4001C16.736 28.3841 12.552 28.3921 10.304 28.4001L10.256 30.5281Z" fill="#231F20"/>
<path d="M18.376 29.1439C18.28 29.0799 11.832 29.1439 11.832 29.1439V31.4799H18.376V29.1439Z" fill="white"/>
<path d="M11.832 31.5359C11.8 31.5359 11.776 31.5119 11.776 31.4799V29.1439C11.776 29.1119 11.8 29.0879 11.832 29.0879C14.24 29.0639 18.304 29.0319 18.408 29.0959C18.424 29.1039 18.432 29.1279 18.432 29.1439V31.4799C18.432 31.5119 18.408 31.5359 18.376 31.5359H11.832ZM11.888 29.1999V31.4239H18.32V29.1919C17.896 29.1519 14.32 29.1679 11.888 29.1999Z" fill="#231F20"/>
<path d="M17.968 30.4641H17.176C17.144 30.4641 17.12 30.4401 17.12 30.4081C17.12 30.3761 17.144 30.3521 17.176 30.3521H17.968C18 30.3521 18.024 30.3761 18.024 30.4081C18.024 30.4401 18 30.4641 17.968 30.4641Z" fill="#161616" fill-opacity="0.2"/>
<path d="M13.6321 31.4159V29.1279L12.3361 28.3359H15.6161L17.0801 29.1119L17.1681 31.3919" fill="#231F20"/>
<path d="M13.632 31.472C13.6 31.472 13.576 31.448 13.576 31.416V29.152L12.304 28.376C12.28 28.36 12.272 28.328 12.288 28.296C12.296 28.28 12.32 28.272 12.336 28.272H15.624C15.632 28.272 15.64 28.272 15.648 28.28L17.112 29.056C17.128 29.064 17.144 29.08 17.144 29.104L17.232 31.384C17.232 31.416 17.208 31.44 17.176 31.44C17.144 31.44 17.12 31.416 17.12 31.384L17.032 29.136L15.608 28.376H12.536L13.664 29.064C13.68 29.072 13.688 29.096 13.688 29.112V31.408C13.688 31.448 13.664 31.472 13.632 31.472Z" fill="#231F20"/>
<path d="M11.832 29.2C11.824 29.2 11.816 29.2 11.808 29.192L10.224 28.392C10.2 28.376 10.184 28.344 10.2 28.32C10.216 28.296 10.248 28.28 10.272 28.296L11.856 29.096C11.88 29.112 11.896 29.144 11.88 29.168C11.872 29.192 11.856 29.2 11.832 29.2Z" fill="#231F20"/>
<path d="M13.4321 29.8161H12.2401C12.2081 29.8161 12.1841 29.7921 12.1841 29.7601C12.1841 29.7281 12.2081 29.7041 12.2401 29.7041H13.4321C13.4641 29.7041 13.4881 29.7281 13.4881 29.7601C13.4881 29.7921 13.4641 29.8161 13.4321 29.8161Z" fill="#161616" fill-opacity="0.2"/>
<path d="M18.1841 29.6721H17.3601C17.3281 29.6721 17.3041 29.6481 17.3041 29.6161C17.3041 29.5841 17.3281 29.5601 17.3601 29.5601H18.1841C18.2161 29.5601 18.2401 29.5841 18.2401 29.6161C18.2401 29.6481 18.2161 29.6721 18.1841 29.6721Z" fill="#161616" fill-opacity="0.2"/>
<path d="M13.256 30.6559H11.968C11.936 30.6559 11.912 30.6319 11.912 30.5999C11.912 30.5679 11.936 30.5439 11.968 30.5439H13.256C13.288 30.5439 13.312 30.5679 13.312 30.5999C13.312 30.6319 13.288 30.6559 13.256 30.6559Z" fill="#161616" fill-opacity="0.2"/>
<path d="M11.4241 29.5919C11.4161 29.5919 11.4081 29.5919 11.4001 29.5839L10.5361 29.1119C10.5121 29.0959 10.4961 29.0639 10.5121 29.0319C10.5281 29.0079 10.5601 28.9919 10.5841 29.0079L11.4481 29.4799C11.4801 29.4959 11.4881 29.5279 11.4721 29.5599C11.4641 29.5839 11.4401 29.5919 11.4241 29.5919Z" fill="#161616" fill-opacity="0.2"/>
<path d="M11.632 30.9039C11.624 30.9039 11.616 30.9039 11.608 30.8959L10.704 30.4159C10.68 30.3999 10.664 30.3679 10.68 30.3439C10.696 30.3199 10.728 30.3039 10.752 30.3199L11.656 30.7999C11.68 30.8159 11.696 30.8479 11.68 30.8799C11.672 30.8959 11.648 30.9039 11.632 30.9039Z" fill="#161616" fill-opacity="0.2"/>
<path d="M11.312 30.1679C11.304 30.1679 11.296 30.1679 11.288 30.1599L10.336 29.6559C10.312 29.6399 10.296 29.6079 10.312 29.5839C10.328 29.5599 10.36 29.5439 10.384 29.5599L11.336 30.0639C11.36 30.0799 11.376 30.1119 11.36 30.1359C11.352 30.1599 11.328 30.1679 11.312 30.1679Z" fill="#161616" fill-opacity="0.2"/>
<path d="M13.5201 31.112H12.7601C12.7281 31.112 12.7041 31.088 12.7041 31.056C12.7041 31.024 12.7281 31 12.7601 31H13.5201C13.5521 31 13.5761 31.024 13.5761 31.056C13.5761 31.088 13.5521 31.112 13.5201 31.112Z" fill="#161616" fill-opacity="0.2"/>
<path d="M16.888 27.512V28.232C16.888 28.504 16.112 28.728 15.144 28.728C14.176 28.728 13.4 28.504 13.4 28.232V27.512H16.888Z" fill="white"/>
<path d="M15.144 28.7841C14.272 28.7841 13.344 28.5921 13.344 28.2321V27.5121C13.344 27.4801 13.368 27.4561 13.4 27.4561H16.88C16.912 27.4561 16.936 27.4801 16.936 27.5121V28.2321C16.944 28.5921 16.016 28.7841 15.144 28.7841ZM13.456 27.5681V28.2321C13.456 28.4401 14.144 28.6721 15.144 28.6721C16.144 28.6721 16.832 28.4401 16.832 28.2321V27.5681H13.456Z" fill="#231F20"/>
<path d="M15.144 28.0079C16.1072 28.0079 16.888 27.7858 16.888 27.5119C16.888 27.2379 16.1072 27.0159 15.144 27.0159C14.1808 27.0159 13.4 27.2379 13.4 27.5119C13.4 27.7858 14.1808 28.0079 15.144 28.0079Z" fill="#231F20"/>
<path d="M15.144 28.064C14.272 28.064 13.344 27.872 13.344 27.512C13.344 27.152 14.272 26.96 15.144 26.96C16.016 26.96 16.944 27.152 16.944 27.512C16.944 27.872 16.016 28.064 15.144 28.064ZM15.144 27.072C14.152 27.072 13.456 27.304 13.456 27.512C13.456 27.72 14.144 27.952 15.144 27.952C16.144 27.952 16.832 27.72 16.832 27.512C16.832 27.304 16.136 27.072 15.144 27.072Z" fill="#231F20"/>
<path d="M16.472 26.5281V27.2481C16.472 27.5201 15.688 27.7441 14.728 27.7441C13.768 27.7441 12.984 27.5201 12.984 27.2481V26.5281H16.472Z" fill="white"/>
<path d="M14.736 27.7919C13.864 27.7919 12.936 27.5999 12.936 27.2399V26.5199C12.936 26.4879 12.96 26.4639 12.992 26.4639H16.472C16.504 26.4639 16.528 26.4879 16.528 26.5199V27.2399C16.528 27.5999 15.608 27.7919 14.736 27.7919ZM13.048 26.5839V27.2479C13.048 27.4559 13.736 27.6879 14.736 27.6879C15.736 27.6879 16.424 27.4559 16.424 27.2479V26.5839H13.048Z" fill="#231F20"/>
<path d="M14.7361 27.024C15.6993 27.024 16.4801 26.8019 16.4801 26.528C16.4801 26.2541 15.6993 26.032 14.7361 26.032C13.7729 26.032 12.9921 26.2541 12.9921 26.528C12.9921 26.8019 13.7729 27.024 14.7361 27.024Z" fill="white"/>
<path d="M14.736 27.072C13.864 27.072 12.936 26.88 12.936 26.52C12.936 26.16 13.864 25.968 14.736 25.968C15.608 25.968 16.536 26.16 16.536 26.52C16.536 26.88 15.608 27.072 14.736 27.072ZM14.736 26.088C13.744 26.088 13.048 26.32 13.048 26.528C13.048 26.736 13.736 26.968 14.736 26.968C15.736 26.968 16.424 26.736 16.424 26.528C16.424 26.32 15.728 26.088 14.736 26.088Z" fill="#231F20"/>
<path d="M14.7361 26.88C14.2081 26.88 13.2161 26.808 13.2161 26.52C13.2161 26.232 14.2081 26.168 14.7361 26.168C15.2641 26.168 16.2481 26.24 16.2481 26.52C16.2481 26.8 15.2561 26.88 14.7361 26.88ZM14.7361 26.28C13.8241 26.28 13.3281 26.44 13.3281 26.52C13.3281 26.6 13.8241 26.76 14.7361 26.76C15.6481 26.76 16.1441 26.6 16.1441 26.52C16.1441 26.44 15.6401 26.28 14.7361 26.28Z" fill="#161616" fill-opacity="0.2"/>
<path d="M31.672 29.9681L24.672 29.9041L22.744 31.6881H30.84L31.672 29.9681Z" fill="white"/>
<path d="M30.84 31.7439H22.744C22.712 31.7439 22.688 31.7199 22.688 31.6879C22.688 31.6719 22.696 31.6559 22.704 31.6479L24.632 29.8639C24.64 29.8559 24.656 29.8479 24.672 29.8479L31.672 29.9119C31.688 29.9119 31.712 29.9199 31.72 29.9359C31.728 29.9519 31.728 29.9759 31.72 29.9919L30.888 31.7119C30.88 31.7279 30.856 31.7439 30.84 31.7439ZM22.888 31.6319H30.808L31.592 30.0239L24.704 29.9599L22.888 31.6319Z" fill="#231F20"/>
<path d="M22.584 30.272V30.992C22.584 31.264 23.36 31.488 24.328 31.488C25.296 31.488 26.072 31.264 26.072 30.992V30.272H22.584Z" fill="white"/>
<path d="M24.3281 31.536C23.4561 31.536 22.5281 31.344 22.5281 30.984V30.264C22.5281 30.232 22.5521 30.208 22.5841 30.208H26.0641C26.0961 30.208 26.1201 30.232 26.1201 30.264V30.984C26.1201 31.344 25.2001 31.536 24.3281 31.536ZM22.6401 30.328V30.992C22.6401 31.2 23.3281 31.432 24.3281 31.432C25.3281 31.432 26.0161 31.2 26.0161 30.992V30.328H22.6401Z" fill="#231F20"/>
<path d="M24.328 30.7679C25.2912 30.7679 26.072 30.5458 26.072 30.2719C26.072 29.9979 25.2912 29.7759 24.328 29.7759C23.3648 29.7759 22.584 29.9979 22.584 30.2719C22.584 30.5458 23.3648 30.7679 24.328 30.7679Z" fill="#231F20"/>
<path d="M24.3281 30.8159C23.4561 30.8159 22.5281 30.6239 22.5281 30.2639C22.5281 29.9039 23.4561 29.7119 24.3281 29.7119C25.2001 29.7119 26.1281 29.9039 26.1281 30.2639C26.1281 30.6239 25.2001 30.8159 24.3281 30.8159ZM24.3281 29.8319C23.3361 29.8319 22.6401 30.0639 22.6401 30.2719C22.6401 30.4799 23.3281 30.7119 24.3281 30.7119C25.3281 30.7119 26.0161 30.4799 26.0161 30.2719C26.0161 30.0639 25.3201 29.8319 24.3281 29.8319Z" fill="#231F20"/>
<path d="M22.9921 29.28V30C22.9921 30.272 23.7761 30.496 24.7361 30.496C25.6961 30.496 26.4801 30.28 26.4801 30V29.28H22.9921Z" fill="white"/>
<path d="M24.736 30.5519C23.864 30.5519 22.936 30.3599 22.936 29.9999V29.2799C22.936 29.2479 22.96 29.2239 22.992 29.2239H26.48C26.512 29.2239 26.536 29.2479 26.536 29.2799V29.9999C26.536 30.3599 25.608 30.5519 24.736 30.5519ZM23.048 29.3359V29.9999C23.048 30.2079 23.736 30.4399 24.736 30.4399C25.736 30.4399 26.424 30.2079 26.424 29.9999V29.3359H23.048Z" fill="#231F20"/>
<path d="M24.7361 29.7759C25.6993 29.7759 26.4801 29.5539 26.4801 29.2799C26.4801 29.006 25.6993 28.7839 24.7361 28.7839C23.7729 28.7839 22.9921 29.006 22.9921 29.2799C22.9921 29.5539 23.7729 29.7759 24.7361 29.7759Z" fill="#231F20"/>
<path d="M24.736 29.832C23.864 29.832 22.936 29.64 22.936 29.28C22.936 28.92 23.864 28.728 24.736 28.728C25.608 28.728 26.536 28.92 26.536 29.28C26.536 29.64 25.608 29.832 24.736 29.832ZM24.736 28.84C23.744 28.84 23.048 29.072 23.048 29.28C23.048 29.488 23.736 29.72 24.736 29.72C25.736 29.72 26.424 29.488 26.424 29.28C26.424 29.072 25.728 28.84 24.736 28.84Z" fill="#231F20"/>
<path d="M22.64 28.1841V28.9041C22.64 29.1761 23.424 29.4001 24.384 29.4001C25.344 29.4001 26.128 29.1761 26.128 28.9041V28.1841H22.64Z" fill="white"/>
<path d="M24.376 29.4479C23.504 29.4479 22.576 29.2559 22.576 28.8959V28.1759C22.576 28.1439 22.6 28.1199 22.632 28.1199H26.112C26.144 28.1199 26.168 28.1439 26.168 28.1759V28.8959C26.176 29.2559 25.248 29.4479 24.376 29.4479ZM22.696 28.2399V28.9039C22.696 29.1119 23.384 29.3439 24.384 29.3439C25.384 29.3439 26.072 29.1119 26.072 28.9039V28.2399H22.696Z" fill="#231F20"/>
<path d="M24.3761 28.68C25.3393 28.68 26.1201 28.4579 26.1201 28.184C26.1201 27.9101 25.3393 27.688 24.3761 27.688C23.4129 27.688 22.6321 27.9101 22.6321 28.184C22.6321 28.4579 23.4129 28.68 24.3761 28.68Z" fill="white"/>
<path d="M24.376 28.728C23.504 28.728 22.576 28.536 22.576 28.176C22.576 27.816 23.504 27.624 24.376 27.624C25.248 27.624 26.176 27.816 26.176 28.176C26.176 28.536 25.248 28.728 24.376 28.728ZM24.376 27.744C23.384 27.744 22.688 27.976 22.688 28.184C22.688 28.392 23.376 28.624 24.376 28.624C25.376 28.624 26.064 28.392 26.064 28.184C26.064 27.976 25.376 27.744 24.376 27.744Z" fill="#231F20"/>
<path d="M24.3761 28.536C23.8561 28.536 22.8561 28.464 22.8561 28.184C22.8561 27.904 23.8481 27.824 24.3761 27.824C24.9041 27.824 25.8961 27.896 25.8961 28.184C25.8961 28.472 24.9041 28.536 24.3761 28.536ZM24.3761 27.936C23.4641 27.936 22.9761 28.096 22.9761 28.176C22.9761 28.256 23.4721 28.416 24.3761 28.416C25.2801 28.416 25.7841 28.256 25.7841 28.176C25.7841 28.096 25.2881 27.936 24.3761 27.936Z" fill="#161616" fill-opacity="0.2"/>
<path d="M27.1521 29.8799V30.5999C27.1521 30.8719 27.9281 31.0959 28.8961 31.0959C29.8641 31.0959 30.6401 30.8719 30.6401 30.5999V29.8799H27.1521Z" fill="white"/>
<path d="M28.888 31.152C28.016 31.152 27.088 30.96 27.088 30.6V29.88C27.088 29.848 27.112 29.824 27.144 29.824H30.624C30.656 29.824 30.68 29.848 30.68 29.88V30.6C30.688 30.96 29.76 31.152 28.888 31.152ZM27.2 29.936V30.6C27.2 30.808 27.888 31.04 28.888 31.04C29.888 31.04 30.576 30.808 30.576 30.6V29.936H27.2Z" fill="#231F20"/>
<path d="M28.888 30.376C29.8512 30.376 30.632 30.154 30.632 29.88C30.632 29.6061 29.8512 29.384 28.888 29.384C27.9249 29.384 27.144 29.6061 27.144 29.88C27.144 30.154 27.9249 30.376 28.888 30.376Z" fill="#231F20"/>
<path d="M28.888 30.4319C28.016 30.4319 27.088 30.2399 27.088 29.8799C27.088 29.5199 28.016 29.3279 28.888 29.3279C29.76 29.3279 30.688 29.5199 30.688 29.8799C30.688 30.2399 29.76 30.4319 28.888 30.4319ZM28.888 29.4479C27.896 29.4479 27.2 29.6799 27.2 29.8879C27.2 30.0959 27.896 30.3279 28.888 30.3279C29.88 30.3279 30.576 30.0959 30.576 29.8879C30.576 29.6799 29.88 29.4479 28.888 29.4479Z" fill="#231F20"/>
<path d="M26.92 29.032V29.752C26.92 30.024 27.696 30.248 28.664 30.248C29.632 30.248 30.4 30.024 30.4 29.752V29.032H26.92Z" fill="white"/>
<path d="M28.664 30.3041C27.792 30.3041 26.864 30.1121 26.864 29.7521V29.0321C26.864 29.0001 26.888 28.9761 26.92 28.9761H30.4C30.432 28.9761 30.456 29.0001 30.456 29.0321V29.7521C30.456 30.1121 29.536 30.3041 28.664 30.3041ZM26.976 29.0881V29.7521C26.976 29.9601 27.664 30.1921 28.664 30.1921C29.664 30.1921 30.352 29.9601 30.352 29.7521V29.0881H26.976Z" fill="#231F20"/>
<path d="M28.664 29.5279C29.6272 29.5279 30.408 29.3058 30.408 29.0319C30.408 28.758 29.6272 28.5359 28.664 28.5359C27.7009 28.5359 26.92 28.758 26.92 29.0319C26.92 29.3058 27.7009 29.5279 28.664 29.5279Z" fill="#231F20"/>
<path d="M28.664 29.584C27.792 29.584 26.864 29.392 26.864 29.032C26.864 28.672 27.792 28.48 28.664 28.48C29.536 28.48 30.464 28.672 30.464 29.032C30.464 29.392 29.536 29.584 28.664 29.584ZM28.664 28.592C27.672 28.592 26.976 28.824 26.976 29.032C26.976 29.24 27.664 29.472 28.664 29.472C29.664 29.472 30.352 29.24 30.352 29.032C30.352 28.824 29.656 28.592 28.664 28.592Z" fill="#231F20"/>
<path d="M27.2001 27.9919V28.7119C27.2001 28.9839 27.9761 29.2079 28.9441 29.2079C29.9121 29.2079 30.6881 28.9839 30.6881 28.7119V27.9919H27.2001Z" fill="white"/>
<path d="M28.944 29.264C28.072 29.264 27.144 29.072 27.144 28.712V27.992C27.144 27.96 27.168 27.936 27.2 27.936H30.68C30.712 27.936 30.736 27.96 30.736 27.992V28.712C30.736 29.072 29.816 29.264 28.944 29.264ZM27.256 28.048V28.712C27.256 28.92 27.944 29.152 28.944 29.152C29.944 29.152 30.632 28.92 30.632 28.712V28.048H27.256Z" fill="#231F20"/>
<path d="M28.9441 28.4881C29.9073 28.4881 30.6881 28.266 30.6881 27.9921C30.6881 27.7182 29.9073 27.4961 28.9441 27.4961C27.9809 27.4961 27.2001 27.7182 27.2001 27.9921C27.2001 28.266 27.9809 28.4881 28.9441 28.4881Z" fill="#231F20"/>
<path d="M28.944 28.5439C28.072 28.5439 27.144 28.3519 27.144 27.9919C27.144 27.6319 28.072 27.4399 28.944 27.4399C29.816 27.4399 30.744 27.6319 30.744 27.9919C30.744 28.3519 29.816 28.5439 28.944 28.5439ZM28.944 27.5519C27.952 27.5519 27.256 27.7839 27.256 27.9919C27.256 28.1999 27.944 28.4319 28.944 28.4319C29.944 28.4319 30.632 28.1999 30.632 27.9919C30.632 27.7839 29.936 27.5519 28.944 27.5519Z" fill="#231F20"/>
<path d="M26.92 26.9441V27.6641C26.92 27.9361 27.696 28.1601 28.664 28.1601C29.632 28.1601 30.4 27.9361 30.4 27.6641V26.9441H26.92Z" fill="white"/>
<path d="M28.664 28.2159C27.792 28.2159 26.864 28.0239 26.864 27.6639V26.9439C26.864 26.9119 26.888 26.8879 26.92 26.8879H30.4C30.432 26.8879 30.456 26.9119 30.456 26.9439V27.6639C30.456 28.0239 29.536 28.2159 28.664 28.2159ZM26.976 26.9999V27.6639C26.976 27.8719 27.664 28.1039 28.664 28.1039C29.664 28.1039 30.352 27.8719 30.352 27.6639V26.9999H26.976Z" fill="#231F20"/>
<path d="M28.664 27.44C29.6272 27.44 30.408 27.2179 30.408 26.944C30.408 26.6701 29.6272 26.448 28.664 26.448C27.7009 26.448 26.92 26.6701 26.92 26.944C26.92 27.2179 27.7009 27.44 28.664 27.44Z" fill="#231F20"/>
<path d="M28.664 27.4959C27.792 27.4959 26.864 27.3039 26.864 26.9439C26.864 26.5839 27.792 26.3999 28.664 26.3999C29.536 26.3999 30.464 26.5919 30.464 26.9519C30.464 27.3119 29.536 27.4959 28.664 27.4959ZM28.664 26.5119C27.672 26.5119 26.976 26.7439 26.976 26.9519C26.976 27.1599 27.664 27.3919 28.664 27.3919C29.664 27.3919 30.352 27.1599 30.352 26.9519C30.352 26.7439 29.656 26.5119 28.664 26.5119Z" fill="#231F20"/>
<path d="M27.4801 26.0879V26.8079C27.4801 27.0799 28.2641 27.3039 29.2241 27.3039C30.1841 27.3039 30.9681 27.0799 30.9681 26.8079V26.0879H27.4801Z" fill="white"/>
<path d="M29.2241 27.36C28.3521 27.36 27.4241 27.168 27.4241 26.808V26.088C27.4241 26.056 27.4481 26.032 27.4801 26.032H30.9601C30.9921 26.032 31.0161 26.056 31.0161 26.088V26.808C31.0241 27.168 30.0961 27.36 29.2241 27.36ZM27.5361 26.144V26.808C27.5361 27.016 28.2241 27.248 29.2241 27.248C30.2241 27.248 30.9121 27.016 30.9121 26.808V26.144H27.5361Z" fill="#231F20"/>
<path d="M29.2241 26.584C30.1873 26.584 30.9681 26.362 30.9681 26.088C30.9681 25.8141 30.1873 25.592 29.2241 25.592C28.2609 25.592 27.4801 25.8141 27.4801 26.088C27.4801 26.362 28.2609 26.584 29.2241 26.584Z" fill="#231F20"/>
<path d="M29.2241 26.6399C28.3521 26.6399 27.4241 26.4479 27.4241 26.0879C27.4241 25.7279 28.3521 25.5359 29.2241 25.5359C30.0961 25.5359 31.0241 25.7279 31.0241 26.0879C31.0241 26.4479 30.0961 26.6399 29.2241 26.6399ZM29.2241 25.6559C28.2321 25.6559 27.5361 25.8879 27.5361 26.0959C27.5361 26.3039 28.2241 26.5359 29.2241 26.5359C30.2241 26.5359 30.9121 26.3039 30.9121 26.0959C30.9121 25.8879 30.2161 25.6559 29.2241 25.6559Z" fill="#231F20"/>
<path d="M27.104 25.24V25.96C27.104 26.232 27.88 26.456 28.848 26.456C29.816 26.456 30.592 26.232 30.592 25.96V25.24H27.104Z" fill="white"/>
<path d="M28.84 26.5121C27.968 26.5121 27.04 26.3201 27.04 25.9601V25.2401C27.04 25.2081 27.064 25.1841 27.096 25.1841H30.576C30.608 25.1841 30.632 25.2081 30.632 25.2401V25.9601C30.64 26.3121 29.712 26.5121 28.84 26.5121ZM27.16 25.2961V25.9601C27.16 26.1681 27.848 26.4001 28.848 26.4001C29.848 26.4001 30.536 26.1681 30.536 25.9601V25.2961H27.16Z" fill="#231F20"/>
<path d="M28.8401 25.7359C29.8033 25.7359 30.5841 25.5138 30.5841 25.2399C30.5841 24.966 29.8033 24.7439 28.8401 24.7439C27.8769 24.7439 27.0961 24.966 27.0961 25.2399C27.0961 25.5138 27.8769 25.7359 28.8401 25.7359Z" fill="white"/>
<path d="M28.84 25.792C27.968 25.792 27.04 25.6 27.04 25.24C27.04 24.88 27.968 24.688 28.84 24.688C29.712 24.688 30.64 24.88 30.64 25.24C30.64 25.6 29.712 25.792 28.84 25.792ZM28.84 24.8C27.848 24.8 27.152 25.032 27.152 25.24C27.152 25.448 27.84 25.68 28.84 25.68C29.84 25.68 30.528 25.448 30.528 25.24C30.528 25.032 29.832 24.8 28.84 24.8Z" fill="#231F20"/>
<path d="M28.8401 25.5919C28.3121 25.5919 27.3201 25.5199 27.3201 25.2399C27.3201 24.9599 28.3121 24.8799 28.8401 24.8799C29.3681 24.8799 30.3601 24.9519 30.3601 25.2399C30.3601 25.5279 29.3681 25.5919 28.8401 25.5919ZM28.8401 24.9919C27.9281 24.9919 27.4401 25.1519 27.4401 25.2319C27.4401 25.3119 27.9361 25.4719 28.8401 25.4719C29.7441 25.4719 30.2401 25.3119 30.2401 25.2319C30.2401 25.1519 29.7521 24.9919 28.8401 24.9919Z" fill="#161616" fill-opacity="0.2"/>
<path d="M15.92 32.3039C16.7507 32.3039 17.424 31.6305 17.424 30.7999C17.424 29.9693 16.7507 29.2959 15.92 29.2959C15.0894 29.2959 14.416 29.9693 14.416 30.7999C14.416 31.6305 15.0894 32.3039 15.92 32.3039Z" fill="white"/>
<path d="M15.92 32.3519C15.056 32.3519 14.36 31.6559 14.36 30.7919C14.36 29.9279 15.056 29.2319 15.92 29.2319C16.784 29.2319 17.48 29.9279 17.48 30.7919C17.48 31.0079 17.432 31.2159 17.352 31.4079C17.104 31.9839 16.544 32.3519 15.92 32.3519ZM15.928 29.3519C15.128 29.3519 14.48 29.9999 14.48 30.7999C14.48 31.5999 15.128 32.2479 15.928 32.2479C16.728 32.2479 17.376 31.5999 17.376 30.7999C17.376 30.2239 17.032 29.7039 16.504 29.4719C16.312 29.3919 16.12 29.3519 15.928 29.3519Z" fill="#231F20"/>
<path d="M15.9201 32.0559C15.2241 32.0559 14.6641 31.4959 14.6641 30.7999C14.6641 30.1039 15.2241 29.5439 15.9201 29.5439C16.0961 29.5439 16.2641 29.5759 16.4241 29.6479C17.0641 29.9279 17.3521 30.6639 17.0721 31.2959C16.9441 31.5999 16.6881 31.8399 16.3841 31.9679C16.2321 32.0239 16.0801 32.0559 15.9201 32.0559ZM15.9201 29.6559C15.2881 29.6559 14.7761 30.1679 14.7761 30.7999C14.7761 31.4319 15.2881 31.9439 15.9201 31.9439C16.3761 31.9439 16.7841 31.6719 16.9681 31.2559C17.2161 30.6719 16.9521 29.9999 16.3681 29.7519C16.2321 29.6879 16.0721 29.6559 15.9201 29.6559Z" fill="#161616" fill-opacity="0.2"/>
<path d="M21.88 30.696V31.416C21.88 31.688 21.096 31.912 20.136 31.912C19.176 31.912 18.4 31.688 18.4 31.416V30.696H21.88Z" fill="white"/>
<path d="M20.144 31.9679C19.272 31.9679 18.344 31.7759 18.344 31.4159V30.6959C18.344 30.6639 18.368 30.6399 18.4 30.6399H21.88C21.912 30.6399 21.936 30.6639 21.936 30.6959V31.4159C21.936 31.7679 21.008 31.9679 20.144 31.9679ZM18.456 30.7519V31.4159C18.456 31.6239 19.144 31.8559 20.144 31.8559C21.144 31.8559 21.832 31.6239 21.832 31.4159V30.7519H18.456Z" fill="#231F20"/>
<path d="M20.144 31.192C21.1072 31.192 21.888 30.9699 21.888 30.696C21.888 30.422 21.1072 30.2 20.144 30.2C19.1808 30.2 18.4 30.422 18.4 30.696C18.4 30.9699 19.1808 31.192 20.144 31.192Z" fill="white"/>
<path d="M20.144 31.24C19.272 31.24 18.344 31.048 18.344 30.688C18.344 30.328 19.272 30.136 20.144 30.136C21.016 30.136 21.944 30.328 21.944 30.688C21.944 31.048 21.008 31.24 20.144 31.24ZM20.144 30.256C19.152 30.256 18.456 30.488 18.456 30.696C18.456 30.904 19.144 31.136 20.144 31.136C21.144 31.136 21.832 30.904 21.832 30.696C21.832 30.488 21.136 30.256 20.144 30.256Z" fill="#231F20"/>
<path d="M20.1441 31.048C19.6161 31.048 18.6321 30.976 18.6321 30.696C18.6321 30.416 19.6241 30.344 20.1441 30.344C20.6641 30.344 21.6641 30.416 21.6641 30.696C21.6641 30.976 20.6641 31.048 20.1441 31.048ZM20.1441 30.448C19.2321 30.448 18.7361 30.608 18.7361 30.688C18.7361 30.768 19.2321 30.928 20.1441 30.928C21.0561 30.928 21.5521 30.768 21.5521 30.688C21.5521 30.608 21.0481 30.448 20.1441 30.448Z" fill="#161616" fill-opacity="0.2"/>
<path d="M16.768 29.1999H13.848C13.816 29.1999 13.792 29.1759 13.792 29.1439C13.792 29.1119 13.816 29.0879 13.848 29.0879H16.768C16.8 29.0879 16.824 29.1119 16.824 29.1439C16.824 29.1759 16.8 29.1999 16.768 29.1999Z" fill="white"/>
</svg>
