<svg width="40" height="40" viewBox="0 0 40 40" fill="none" xmlns="http://www.w3.org/2000/svg">
<path d="M18.296 11.7679C17.736 12.4239 17.952 14.1199 17.952 14.1199L18.52 14.6959C19.392 15.4399 20.704 15.3439 21.456 14.4639C22.2 13.5919 22.104 12.2799 21.224 11.5279L20.56 11.0559C20.568 11.0719 18.856 11.1199 18.296 11.7679Z" fill="#231F20"/>
<path d="M19.88 15.2721C19.368 15.2721 18.872 15.0881 18.488 14.7601L17.912 14.1761C17.904 14.1681 17.896 14.1521 17.896 14.1361C17.888 14.0641 17.68 12.4001 18.248 11.7361C18.816 11.0721 20.496 11.0161 20.568 11.0081C20.584 11.0081 20.6 11.0161 20.608 11.0161L21.272 11.4881C22.176 12.2561 22.288 13.6081 21.52 14.5121C21.104 15.0001 20.512 15.2721 19.88 15.2721ZM18.016 14.0961L18.568 14.6561C19.424 15.3681 20.696 15.2561 21.408 14.4001C22.112 13.5601 22.008 12.3121 21.184 11.5921L20.544 11.1361C20.344 11.1441 18.84 11.2241 18.344 11.8161C17.848 12.4081 18 13.8881 18.016 14.0961Z" fill="#231F20"/>
<path d="M19.48 14.8639C20.6288 14.8639 21.56 13.9326 21.56 12.7839C21.56 11.6351 20.6288 10.7039 19.48 10.7039C18.3313 10.7039 17.4 11.6351 17.4 12.7839C17.4 13.9326 18.3313 14.8639 19.48 14.8639Z" fill="white"/>
<path d="M19.4721 14.9199C18.2881 14.9199 17.3361 13.9599 17.3361 12.7759C17.3361 11.5919 18.2961 10.6399 19.4801 10.6399C19.9921 10.6399 20.4801 10.8239 20.8721 11.1519C21.7681 11.9199 21.8721 13.2719 21.1041 14.1679C20.7361 14.5999 20.2081 14.8639 19.6401 14.9119C19.5841 14.9199 19.5281 14.9199 19.4721 14.9199ZM19.4801 10.7599C18.3681 10.7599 17.4641 11.6639 17.4641 12.7759C17.4641 13.8879 18.3681 14.7919 19.4801 14.7919C20.5921 14.7919 21.4961 13.8879 21.4961 12.7759C21.4961 12.1839 21.2401 11.6239 20.7921 11.2479C20.4241 10.9279 19.9601 10.7599 19.4801 10.7599Z" fill="#231F20"/>
<path d="M20.072 8.01595L20.592 8.61595C20.928 9.03195 21.984 8.73595 22.952 7.95995C23.92 7.18395 24.44 6.21595 24.104 5.79995L23.584 5.19995L20.072 8.01595Z" fill="#231F20"/>
<path d="M21.08 8.87194C20.84 8.87194 20.648 8.79994 20.536 8.65594L20.016 8.05594C19.992 8.03194 19.992 7.99194 20.024 7.96794L23.536 5.15194C23.56 5.12794 23.6 5.13594 23.624 5.15994L24.144 5.75994C24.32 5.98394 24.296 6.34394 24.064 6.77594C23.84 7.19194 23.456 7.63194 22.984 8.00794C22.512 8.38394 21.992 8.67194 21.544 8.79194C21.4 8.84794 21.24 8.87194 21.08 8.87194ZM20.16 8.02394L20.64 8.56794C20.784 8.74394 21.104 8.78394 21.512 8.66394C21.952 8.54394 22.448 8.27194 22.912 7.90394C23.376 7.53594 23.744 7.11994 23.96 6.71994C24.16 6.34394 24.2 6.02394 24.056 5.84794L23.576 5.29594L20.16 8.02394Z" fill="#231F20"/>
<path d="M22.4311 7.37169C23.4001 6.59561 23.9147 5.62821 23.5805 5.21094C23.2463 4.79368 22.1899 5.08456 21.2209 5.86064C20.2519 6.63673 19.7372 7.60413 20.0714 8.02139C20.4056 8.43866 21.462 8.14778 22.4311 7.37169Z" fill="white"/>
<path d="M20.5601 8.26398C20.3201 8.26398 20.1361 8.19198 20.0241 8.05598C19.8481 7.83198 19.8721 7.47998 20.1041 7.04798C20.3281 6.63198 20.7121 6.19198 21.1841 5.81598C21.6561 5.43998 22.1681 5.15998 22.6241 5.03198C23.0961 4.90398 23.4481 4.95198 23.6241 5.17598C23.8001 5.39998 23.7761 5.75198 23.5441 6.18398C23.3201 6.59998 22.9361 7.03998 22.4641 7.41598C21.9921 7.79198 21.4801 8.07198 21.0241 8.19998C20.8721 8.23998 20.7201 8.26398 20.5601 8.26398ZM23.0881 5.07198C22.9441 5.07198 22.8001 5.09598 22.6561 5.13598C22.2161 5.25598 21.7201 5.52798 21.2561 5.90398C20.7921 6.27998 20.4161 6.70398 20.2081 7.10398C20.0081 7.48798 19.9681 7.80798 20.1121 7.98398C20.2561 8.15998 20.5761 8.19998 20.9921 8.07998C21.4321 7.95998 21.9281 7.68798 22.3921 7.31198C22.8561 6.93598 23.2321 6.51198 23.4401 6.11198C23.6401 5.72798 23.6801 5.40798 23.5361 5.23198C23.4561 5.12798 23.3041 5.07198 23.0881 5.07198Z" fill="#231F20"/>
<path d="M15.016 7.264L15.584 6.704C15.952 6.32 16.976 6.696 17.888 7.544C18.8 8.392 19.232 9.4 18.864 9.792L18.296 10.352L15.016 7.264Z" fill="white"/>
<path d="M18.296 10.4079C18.28 10.4079 18.264 10.3999 18.256 10.3919L14.976 7.30389C14.952 7.27989 14.952 7.23989 14.976 7.21589L15.544 6.65589C15.736 6.44789 16.096 6.43189 16.552 6.59989C16.992 6.75989 17.48 7.07989 17.928 7.49589C18.872 8.38389 19.304 9.40789 18.904 9.82389L18.336 10.3839C18.328 10.3999 18.312 10.4079 18.296 10.4079ZM15.104 7.26389L18.296 10.2719L18.824 9.75989C19.16 9.40789 18.712 8.41589 17.848 7.59989C17.416 7.19189 16.944 6.87989 16.52 6.72789C16.112 6.58389 15.792 6.59189 15.64 6.75989L15.104 7.26389Z" fill="#231F20"/>
<path d="M18.2936 10.3497C18.6601 9.96048 18.2245 8.95494 17.3207 8.10374C16.4168 7.25255 15.387 6.87802 15.0205 7.26722C14.6539 7.65642 15.0895 8.66196 15.9934 9.51315C16.8972 10.3643 17.927 10.7389 18.2936 10.3497Z" fill="#231F20"/>
<path d="M17.872 10.5681C17.68 10.5601 17.496 10.5281 17.32 10.4561C16.88 10.2961 16.392 9.9761 15.944 9.5601C15.496 9.1441 15.152 8.6721 14.968 8.2401C14.776 7.7921 14.776 7.4241 14.968 7.2241C15.16 7.0241 15.528 6.9921 15.984 7.1601C16.424 7.3201 16.912 7.6401 17.36 8.0561C17.808 8.4721 18.152 8.9441 18.336 9.3761C18.528 9.8241 18.528 10.1921 18.336 10.3921C18.216 10.5201 18.048 10.5841 17.872 10.5681ZM15.44 7.1761C15.304 7.1681 15.168 7.2161 15.064 7.3041C14.912 7.4721 14.92 7.7921 15.088 8.1841C15.272 8.6001 15.608 9.0561 16.04 9.4641C16.472 9.8721 16.944 10.1841 17.368 10.3361C17.768 10.4801 18.088 10.4721 18.248 10.3041C18.4 10.1361 18.392 9.8161 18.224 9.4241C18.04 9.0081 17.704 8.5521 17.272 8.1441C16.84 7.7361 16.368 7.4241 15.944 7.2721C15.784 7.2161 15.616 7.1841 15.44 7.1761Z" fill="#231F20"/>
<path d="M15.304 13.9919C15.072 13.6879 14.872 13.2479 15.248 13.0319C15.512 12.8799 15.904 12.9599 16.2 13.0799C16.496 13.1999 16.76 13.3759 17.096 13.4079C18.024 13.5039 18.752 12.5279 19.656 12.7199C19.992 12.7919 20.232 13.0159 20.552 13.1199C21.144 13.3199 21.816 13.0719 22.424 12.8959C23.032 12.7199 23.864 12.6639 24.2 13.0639C24.536 13.4639 24.12 13.9519 23.808 14.3519C23.416 14.8559 23.176 15.4639 23.128 16.1039C23.12 16.2799 23.112 16.4799 22.968 16.6239C22.808 16.7839 22.52 16.8319 22.256 16.8799C20.616 17.1439 18.768 17.3279 17.368 16.4719C16.416 15.8959 15.888 14.7599 15.304 13.9919Z" fill="#FFC107"/>
<path d="M30.8721 29.424C30.8721 33.88 26.0001 35.04 20.0001 35.04C14.0001 35.04 9.12805 33.88 9.12805 29.424C9.12805 24.968 13.9921 16.272 20.0001 16.272C26.0081 16.272 30.8721 24.968 30.8721 29.424Z" fill="#FFC107"/>
<path d="M20.9921 17.6C20.9921 17.6 22.0801 20.064 22.8801 23.528L25.2641 22.608C25.2641 22.608 23.5121 20.024 22.4881 18.72C21.4641 17.416 20.9921 17.6 20.9921 17.6Z" fill="white"/>
<path d="M22.88 23.5918C22.872 23.5918 22.864 23.5918 22.848 23.5838C22.832 23.5758 22.824 23.5598 22.816 23.5438C22.352 21.5198 21.72 19.5438 20.928 17.6238C20.92 17.6078 20.92 17.5918 20.928 17.5758C20.936 17.5598 20.944 17.5518 20.96 17.5438C21.016 17.5278 21.512 17.3918 22.528 18.6878C23.544 19.9838 25.288 22.5518 25.304 22.5758C25.312 22.5918 25.32 22.6078 25.312 22.6238C25.304 22.6398 25.296 22.6558 25.28 22.6638L22.896 23.5838C22.896 23.5918 22.888 23.5918 22.88 23.5918ZM21.08 17.6478C21.848 19.5278 22.464 21.4718 22.928 23.4478L25.176 22.5838C24.904 22.1838 23.368 19.9438 22.448 18.7598C21.688 17.7918 21.24 17.6638 21.08 17.6478Z" fill="#231F20"/>
<path d="M21.4721 17.416C21.4721 17.416 24.4561 18.848 25.5441 20.144L23.7601 21.432C23.7601 21.432 22.2241 18.376 20.9921 17.592L21.4721 17.416Z" fill="white"/>
<path d="M23.76 21.4958C23.752 21.4958 23.752 21.4958 23.744 21.4958C23.728 21.4878 23.712 21.4798 23.704 21.4638C23.688 21.4318 22.16 18.4158 20.952 17.6478C20.936 17.6318 20.92 17.6158 20.928 17.5918C20.928 17.5678 20.944 17.5518 20.968 17.5438L21.448 17.3678C21.464 17.3598 21.48 17.3598 21.496 17.3678C21.616 17.4238 24.504 18.8238 25.584 20.1118C25.592 20.1278 25.6 20.1438 25.6 20.1598C25.6 20.1758 25.592 20.1918 25.576 20.1998L23.792 21.4878C23.784 21.4878 23.776 21.4878 23.76 21.4958ZM21.12 17.6158C22.248 18.4238 23.56 20.9118 23.784 21.3438L25.456 20.1358C24.408 18.9358 21.744 17.6158 21.472 17.4798L21.12 17.6158Z" fill="#231F20"/>
<path d="M23.7921 17.6638C23.0401 18.0078 20.7761 17.8078 20.2961 17.8078H17.6161C17.2241 17.8078 15.4321 17.9758 15.9761 17.3358C16.0401 17.2638 16.1281 17.2078 16.1841 17.1358C16.3201 16.9598 16.1921 16.7438 16.0881 16.5518C15.6481 15.7198 16.9681 15.8878 17.6641 15.8878H22.1601C22.7281 15.8878 23.9601 15.6718 23.8241 16.3358C23.7921 16.4798 23.6881 16.6158 23.7041 16.7598C23.7281 16.9678 23.9841 17.1278 24.0321 17.3278C24.0561 17.4718 23.9681 17.5838 23.7921 17.6638Z" fill="white"/>
<path d="M22.0881 17.9279C21.6001 17.9279 21.1121 17.9039 20.7521 17.8879C20.5441 17.8799 20.3841 17.8719 20.2961 17.8719H17.6161C17.5601 17.8719 17.4881 17.8719 17.3921 17.8799C16.6801 17.9119 15.9681 17.9119 15.8401 17.6399C15.7921 17.5439 15.8241 17.4319 15.9361 17.2959C15.9681 17.2639 16.0001 17.2239 16.0401 17.1999C16.0801 17.1679 16.1121 17.1359 16.1441 17.1039C16.2481 16.9599 16.1521 16.7839 16.0561 16.6079L16.0401 16.5839C15.9281 16.3759 15.9121 16.2079 15.9921 16.0879C16.1761 15.7919 16.8001 15.8079 17.3601 15.8239C17.4721 15.8239 17.5761 15.8319 17.6641 15.8319H22.1601C22.2641 15.8319 22.3921 15.8239 22.5201 15.8159C22.9921 15.7919 23.5921 15.7519 23.8001 16.0079C23.8801 16.1039 23.9041 16.2319 23.8721 16.3519C23.8561 16.4159 23.8401 16.4719 23.8081 16.5279C23.7681 16.5999 23.7521 16.6799 23.7521 16.7599C23.7761 16.8639 23.8321 16.9519 23.9041 17.0319C23.9841 17.1119 24.0481 17.2159 24.0801 17.3279C24.1041 17.4479 24.0801 17.6159 23.8161 17.7359C23.4561 17.8879 22.7681 17.9279 22.0881 17.9279ZM17.6081 17.7519H20.2961C20.3921 17.7519 20.5521 17.7599 20.7601 17.7679C21.6081 17.8079 23.1761 17.8799 23.7681 17.6079C23.9841 17.5119 23.9841 17.4079 23.9681 17.3359C23.9361 17.2479 23.8881 17.1599 23.8161 17.0879C23.7281 16.9999 23.6641 16.8799 23.6401 16.7599C23.6401 16.6559 23.6561 16.5599 23.7041 16.4719C23.7281 16.4239 23.7441 16.3759 23.7601 16.3199C23.7841 16.2399 23.7681 16.1439 23.7121 16.0719C23.5361 15.8639 22.9521 15.9039 22.5281 15.9279C22.3921 15.9359 22.2641 15.9439 22.1601 15.9439H17.6641C17.5681 15.9439 17.4641 15.9439 17.3521 15.9359C16.8801 15.9199 16.2321 15.9039 16.0881 16.1439C16.0321 16.2319 16.0481 16.3599 16.1361 16.5279L16.1521 16.5519C16.2561 16.7439 16.3761 16.9759 16.2241 17.1759C16.1921 17.2159 16.1521 17.2559 16.1041 17.2959C16.0721 17.3199 16.0401 17.3439 16.0161 17.3759C15.9601 17.4399 15.9041 17.5279 15.9361 17.5839C16.0481 17.8079 16.9761 17.7679 17.3761 17.7519C17.4721 17.7439 17.5521 17.7439 17.6081 17.7519Z" fill="#231F20"/>
<path d="M19.4 30.0799V29.4239C19.16 29.3599 18.928 29.3119 18.712 29.2319C18.28 29.0959 17.904 28.8079 17.648 28.4319C17.44 28.1039 17.328 27.7199 17.344 27.3279H18.616C18.672 27.7999 18.904 28.1439 19.4 28.2719V26.5439C19.144 26.4719 18.888 26.3999 18.64 26.3199C18.36 26.2399 18.104 26.0959 17.896 25.8959C17.68 25.6799 17.536 25.3999 17.48 25.0959C17.4 24.7279 17.432 24.3439 17.56 23.9839C17.752 23.4639 18.16 23.0559 18.68 22.8719C18.888 22.7999 19.104 22.7519 19.328 22.7039C19.352 22.6959 19.376 22.6959 19.408 22.6879V21.8159H20.6V21.8959C20.6 22.1439 20.6 22.3919 20.6 22.6399C20.6 22.7039 20.616 22.7199 20.68 22.7359C21.088 22.8159 21.472 22.9919 21.792 23.2559C22.128 23.5359 22.36 23.9279 22.424 24.3679C22.448 24.4879 22.456 24.6079 22.472 24.7279H21.168C21.16 24.3679 20.944 24.0399 20.608 23.9039V25.5199C20.648 25.5279 20.696 25.5439 20.752 25.5519C21.104 25.6239 21.44 25.7359 21.768 25.8799C22.288 26.1279 22.576 26.5439 22.648 27.1119C22.72 27.6079 22.6 28.1119 22.312 28.5199C22.072 28.8559 21.736 29.1039 21.352 29.2319C21.112 29.3119 20.864 29.3679 20.608 29.4399V30.0719H19.4V30.0799ZM20.6 26.7999V28.3039C20.792 28.2719 20.976 28.1919 21.128 28.0719C21.408 27.8479 21.504 27.2799 21.096 27.0319C20.936 26.9359 20.768 26.8639 20.6 26.7999ZM19.4 25.2559V23.7999C19.24 23.8719 19.088 23.9439 18.944 24.0319C18.616 24.2559 18.56 24.8639 18.984 25.0799C19.12 25.1519 19.256 25.1919 19.4 25.2559Z" fill="#231F20"/>
<path d="M16.176 17.2C16.144 17.2 16.12 17.168 16.12 17.136C16.12 17.112 16.136 17.088 16.16 17.08C16.192 17.072 16.896 16.896 18.208 16.928C18.24 16.928 18.264 16.96 18.264 16.992C18.264 17.016 18.24 17.04 18.208 17.048C16.912 17.016 16.2 17.192 16.192 17.2C16.192 17.2 16.184 17.2 16.176 17.2Z" fill="#231F20"/>
<path d="M23.608 16.664H23.6C23.584 16.664 21.664 16.376 20.568 16.512C20.536 16.512 20.504 16.488 20.504 16.456C20.504 16.424 20.52 16.4 20.552 16.4C21.664 16.264 23.592 16.552 23.616 16.552C23.648 16.56 23.672 16.592 23.664 16.624C23.664 16.64 23.64 16.664 23.608 16.664Z" fill="#231F20"/>
<path d="M22.392 20.1278C22.368 20.1278 22.344 20.1118 22.336 20.0878C22.152 19.4318 21.544 18.2318 21.544 18.2158C21.528 18.1838 21.544 18.1518 21.568 18.1358C21.6 18.1198 21.632 18.1358 21.648 18.1598C21.672 18.2078 22.264 19.3838 22.448 20.0478C22.456 20.0798 22.44 20.1118 22.408 20.1198L22.392 20.1278Z" fill="#231F20"/>
<path d="M24.2401 20.56C24.2161 20.56 24.2001 20.552 24.1921 20.528C24.1841 20.52 23.6241 19.536 23.1281 19.056C23.1041 19.032 23.1041 19 23.1281 18.976C23.1521 18.952 23.1921 18.952 23.2161 18.976C23.7201 19.464 24.2801 20.44 24.3041 20.48C24.3201 20.512 24.3121 20.544 24.2801 20.56C24.2641 20.56 24.2481 20.568 24.2401 20.56Z" fill="#231F20"/>
</svg>
